<svg width="48" height="179" viewBox="0 0 48 179" fill="none" xmlns="http://www.w3.org/2000/svg">
<path d="M18.5177 168.61C20.5727 168.934 22.7037 165.67 24.0607 164.307C24.8967 163.467 25.5557 163.615 26.3237 162.912C27.0777 162.222 27.0467 161.061 27.8287 160.419C28.4617 159.899 29.0527 160.011 29.5767 159.363C30.0697 158.754 29.9667 158.147 30.7707 157.614C31.1177 157.384 31.9008 157.361 32.1528 157.094C32.3528 156.882 32.3357 156.122 32.4647 155.898C33.0677 154.857 34.6287 153.685 35.5347 153.051C35.6347 153.025 35.7357 152.999 35.8357 152.972C36.4267 153.035 36.6917 152.79 36.6337 152.237C37.1637 151.674 36.4667 151.975 37.4037 151.302C38.0207 150.858 39.6947 149.867 40.3827 149.816C42.7377 149.639 41.6618 152.894 41.0328 154.072C40.3648 155.321 39.0038 157.131 38.0028 158.269C37.2768 159.093 36.3598 159.752 35.5798 160.53C34.5238 161.583 33.8197 162.504 33.0747 163.7C32.2367 165.046 30.8477 166.557 29.5507 167.499C28.9537 167.933 28.1668 168.018 27.5848 168.487C26.6888 169.209 25.8697 170.37 25.0247 171.183C24.2097 171.968 23.3188 173.346 22.3228 173.884C22.0378 174.037 21.5337 173.977 21.2207 174.127C20.8277 174.315 20.4017 174.911 20.0267 175.177C19.3357 175.666 18.5637 176.025 17.8017 176.387C16.7617 176.881 15.4217 177.91 14.3647 178.213C13.6587 178.415 12.4647 178.306 11.7307 178.213C10.4237 178.048 10.3437 177.683 9.74075 176.574C9.20175 175.582 8.85574 175.126 8.85574 173.948C8.85574 172.309 8.70874 171.238 9.52874 169.827C10.0607 168.911 10.4477 168.246 10.5837 167.221C10.7637 165.865 10.5187 164.714 10.9277 163.51C11.1277 162.922 11.2527 163.005 11.3727 162.385C11.4827 161.817 11.2877 161.192 11.3727 160.619C11.4787 159.907 11.6067 159.73 11.8247 159.133C12.0877 158.414 12.2227 158.037 12.2227 157.1C12.2227 156.657 12.0967 155.768 12.2227 155.4C12.5557 154.424 12.9727 154.648 13.1187 153.523C13.2117 152.812 13.1397 152.224 13.3387 151.593C13.5647 151.332 13.7897 151.072 14.0157 150.811C14.0157 150.396 14.0157 149.98 14.0157 149.565C14.0157 148.027 13.9827 144.203 16.5347 145.53C18.3137 146.455 17.4217 151.064 17.4217 152.849C17.4217 154.118 17.4557 155.366 17.1097 156.459C16.9537 156.954 16.8157 157.249 16.7337 157.863C16.6817 158.25 16.4807 159.873 17.1147 159.925C17.3287 159.942 18.8918 156.408 19.0728 156.025C19.4238 155.282 19.7227 154.505 20.1307 153.79C20.4867 153.166 21.0797 152.707 21.4927 152.075C21.9247 151.414 21.7837 150.6 22.0717 149.817C22.3647 149.019 22.9577 148.259 23.3407 147.487C24.0607 146.034 24.9627 144.574 25.3457 143.102C25.4787 142.592 25.5677 142.229 25.7327 141.761C25.9527 141.139 26.0167 140.501 26.2197 139.864C26.4817 139.041 27.2377 138.784 27.6517 138.084C27.9527 137.575 27.9237 137.194 27.9237 136.568C27.9237 135.704 28.0368 135.554 28.3338 134.806C29.5818 131.662 31.2797 128.691 32.3627 125.466C32.8547 124.001 33.6607 122.495 34.0557 121.056C34.1867 120.579 33.9497 120.069 34.0987 119.59C34.2557 119.085 34.8688 118.22 35.1138 117.703C35.3708 117.161 35.6767 116.776 35.8227 116.178C35.9137 115.804 35.8008 115.393 35.9208 115.02C36.0088 114.746 36.5047 114.648 36.5807 114.36C36.8197 113.461 36.3787 112.376 36.5807 111.467C36.8137 110.419 37.4768 109.924 37.4768 108.723C37.4768 107.569 37.4667 107.035 37.9127 106.101C38.2807 105.33 38.1878 105.514 38.3728 104.777C38.5788 103.958 38.6127 104.056 38.8187 103.44C39.0927 102.621 39.1388 103.35 39.2698 102.096C39.3128 101.68 39.2698 101.229 39.2698 100.81C39.2698 99.3845 40.0168 98.9965 40.1658 97.6935C40.2218 97.2075 40.0028 96.4385 40.1658 96.0055C40.2748 95.7155 40.7427 95.5495 40.8397 95.2555C41.1237 94.3925 41.0617 93.3895 41.0617 92.4115C41.0617 91.3115 40.9177 90.0615 41.0617 88.9725C41.1917 87.9855 41.6697 87.5945 41.8047 86.6255C42.2657 83.3125 42.2867 79.1565 39.9177 76.6065C38.9797 75.5965 36.8427 75.0935 35.4627 75.6145C34.0587 76.1445 33.3857 78.7465 32.7587 79.9125C31.3547 82.5235 29.5247 84.8695 28.8277 87.6055C28.4347 89.1515 26.8707 89.9225 25.7927 91.0985C24.7037 92.2855 24.1057 93.7685 22.9347 94.9275C21.7777 96.0735 20.3488 96.7585 19.1268 97.8265C18.3998 98.4615 18.0317 98.7615 17.1487 99.0045C16.4137 99.2065 16.4007 99.2555 15.8267 99.4515C15.2297 99.6555 15.0197 100.086 14.1787 99.9015C13.3187 99.7125 10.1137 97.8115 9.68475 96.9435C9.44675 96.4625 9.69574 95.4555 9.52774 94.9595C9.46474 94.7725 9.12875 94.6805 9.06175 94.4945C8.81275 93.8005 8.82574 93.2505 8.82174 92.5355C8.81674 91.5995 8.61975 90.3135 8.82075 89.4005C8.95975 88.7715 9.45675 88.2505 9.79675 87.6275C10.4917 86.3515 11.3977 85.0195 12.2897 83.8565C13.1767 82.7015 14.6807 81.8805 15.4417 80.6495C15.8457 79.9955 15.8277 79.2215 16.4297 78.6795C16.9977 78.1695 17.8797 78.0345 18.5087 77.5565C19.2237 77.0145 19.7737 76.2885 20.4107 75.6655C20.6117 75.4685 20.8237 75.1915 21.0627 75.0415C21.5247 74.7525 22.0587 74.8945 22.4167 74.6675C22.9067 74.3565 23.2867 73.6325 23.8727 73.2685C24.3647 72.9635 25.1157 72.3925 25.6477 72.2035C26.4427 71.9215 27.3837 71.7955 28.2187 71.4975C28.5917 71.3645 28.9458 71.1995 29.3428 71.1475C29.7118 71.0995 30.6177 71.3705 30.8437 71.3015C31.7067 71.0405 32.1127 69.8585 32.2337 69.1905C32.3227 68.7005 32.1187 68.1515 32.2337 67.6675C32.3597 67.1365 32.8538 66.5505 33.1148 66.0795C33.6468 65.1215 34.0267 64.4575 34.0267 63.3495C34.0267 62.8275 33.9037 62.2015 34.0267 61.6975C34.2017 60.9815 34.6347 60.9745 34.9227 60.2955C35.3077 59.3905 34.8207 57.8535 34.9227 56.8475C35.0617 55.4865 34.9888 56.3565 35.3648 55.5105C35.5888 55.0065 35.9047 55.0495 35.7717 54.3695C35.6407 53.6965 34.9357 53.4035 34.9007 52.6955C34.8817 52.3115 35.1817 51.8855 35.2507 51.5005C35.3497 51.1625 35.4487 50.8255 35.5477 50.4875C35.3757 50.3155 35.2048 50.1445 35.0328 49.9725C34.6888 47.6715 34.7897 46.2865 33.5417 44.2835C32.9197 44.8995 33.4387 45.2475 33.2977 45.8995C33.1857 46.4185 32.2687 48.1325 31.9047 48.3935C31.3567 48.7855 30.9797 48.5645 30.5477 49.1635C30.1817 49.6705 29.9158 50.3715 29.5498 50.8935C28.7568 52.0245 28.3258 53.2505 27.1188 54.1555C26.5178 54.6065 25.8247 54.7415 25.2137 55.1655C24.8417 55.4235 24.6217 55.9285 24.2317 56.1365C23.6147 56.4655 22.9487 56.1295 22.3397 56.3855C21.9687 56.5415 21.7487 57.1355 21.3717 57.2815C20.9187 57.4575 20.1627 57.2065 19.6607 57.2815C18.6147 57.4365 18.1427 58.0265 17.0217 58.1295C16.2127 58.2045 15.0717 58.2475 14.3607 57.9525C13.6397 57.6535 13.1277 57.2005 12.3187 56.9585C10.2267 56.3355 9.22074 55.9555 8.52674 53.8195C7.97774 52.1305 7.12074 50.8035 7.12074 49.0655C7.12074 48.6155 7.01874 48.0825 7.12074 47.6465C7.22974 47.1825 7.55674 47.0345 7.71174 46.6185C7.85074 46.2465 7.84275 45.9455 7.93275 45.5315C8.09775 44.7695 8.06575 44.8245 8.44075 44.2715C9.44475 42.7855 10.3637 41.3365 11.6467 40.0515C12.3217 39.3755 12.9837 38.6845 13.7557 38.1895C14.1747 37.9205 14.5197 38.0445 14.8087 37.6515C15.0167 37.3685 14.8177 36.8915 15.1087 36.6175C15.3537 36.3875 15.7177 36.4525 16.0177 36.4035C17.1887 36.2125 17.2047 36.4845 18.0687 35.5975C18.8007 34.8455 18.9328 34.7355 19.8358 34.4115C20.0918 34.3195 20.2297 33.9915 20.5007 33.9015C20.9947 33.7375 21.4967 33.8625 21.9997 33.7095C22.3377 33.6075 22.7197 33.1755 23.0307 33.1575C23.3447 33.1395 23.5917 33.5315 23.7937 33.5095C24.2697 33.4585 24.7797 32.9795 25.4297 32.8325C26.9967 32.4775 31.6487 33.6315 32.2877 32.4085C32.6907 31.6365 32.3127 29.5845 32.3107 28.7045C32.3097 28.2575 32.2328 27.5865 32.3168 27.1225C32.5428 25.8715 32.6538 26.5655 33.1018 25.5805C33.3578 25.0185 33.2608 22.4995 33.1018 21.9315C33.0198 21.6395 32.4407 21.5015 32.3737 21.2035C32.2287 20.5635 32.3737 19.7445 32.3737 19.0935C32.3737 17.8865 32.4757 16.6235 32.3737 15.4215C32.2727 14.2285 31.6918 13.3305 31.1398 12.2545C30.5908 11.1855 30.1457 10.2705 29.2897 9.43054C28.0687 8.23254 27.9837 7.50254 27.6637 5.81354C26.6737 6.71554 26.6247 6.86254 25.4147 6.35054C24.5257 5.97454 23.4727 5.62554 22.6167 5.32854C20.6107 4.63254 16.6787 4.84954 14.4587 5.10954C13.7447 5.19354 13.6297 5.41554 13.0167 5.62854C12.4927 5.80954 11.9167 5.81054 11.3247 5.94554C10.0847 6.22754 9.25574 6.88854 8.39074 7.75554C7.52374 8.62454 6.65475 9.02054 5.67375 9.69354C4.89675 10.2265 4.41274 11.1155 3.52374 11.4995C3.87474 11.8505 4.22575 12.2015 4.57675 12.5525C3.19175 13.1495 1.12774 14.7945 0.118739 12.4605C-0.424261 11.2045 1.02674 8.94654 1.81274 7.98754C2.42474 7.24154 2.86774 6.32254 3.60974 5.81154C3.75874 5.70954 4.17775 5.71554 4.43475 5.55354C4.76875 5.34254 4.92674 4.86754 5.25674 4.63354C5.98174 4.11754 6.66174 3.89954 7.41174 3.32954C8.13874 2.77654 8.96375 2.22254 9.81575 1.88154C10.3947 1.64954 10.9317 1.76154 11.4397 1.56254C11.8367 1.40754 12.1657 1.04254 12.5607 0.890539C13.6087 0.488539 15.0677 0.665538 16.2657 0.665538C16.8467 0.665538 17.8347 0.817538 18.4187 0.665538C18.8917 0.542538 18.9297 0.329539 19.3317 0.181539C20.9267 -0.403461 21.8617 0.612539 23.4427 0.612539C24.7337 0.612539 25.5117 0.726537 26.6547 1.32654C27.2787 1.65354 28.9097 2.88654 29.3097 2.31654C31.4527 4.56154 33.8088 6.57254 35.3088 9.31354C35.6138 9.87054 35.9417 10.4235 36.2277 10.9885C36.6087 11.7385 36.4697 12.2075 36.6947 12.9375C36.8227 13.3515 37.7198 14.2335 37.7218 14.5945C37.7248 15.0395 36.7738 15.5155 36.7048 15.9605C36.9458 16.2015 37.1867 16.4425 37.4267 16.6825C37.4267 17.1185 37.4267 17.5535 37.4267 17.9885C37.4267 19.0105 37.4267 20.0315 37.4267 21.0535C37.4267 22.9685 37.4267 24.8825 37.4267 26.7975C37.4267 28.5475 37.5707 30.4435 37.1217 31.9955C36.6847 32.2545 36.5597 32.6415 36.7447 33.1585C36.7447 33.5495 36.7447 33.9405 36.7447 34.3315C36.6207 35.0035 35.7708 35.6405 35.7178 36.2635C35.6778 36.7305 36.5117 37.7635 36.7597 38.2325C37.3577 39.3625 37.3747 39.8865 37.5307 41.0945C37.7187 42.5495 38.9038 43.4755 39.2738 44.8535C39.5088 45.7275 39.3557 46.6865 39.6027 47.5265C39.7567 47.7285 39.9117 47.9315 40.0657 48.1335C40.0657 48.7075 40.0657 49.2805 40.0657 49.8545C40.0657 51.8965 40.0657 53.9385 40.0657 55.9815C40.0657 56.8625 40.0657 57.7435 40.0657 58.6245C40.0657 59.5585 39.9147 60.0415 39.6817 60.7655C39.2207 61.0335 39.0848 61.4355 39.2738 61.9725C39.2748 62.5315 39.2747 63.0895 39.2717 63.6485C39.1337 64.9655 39.3037 64.1825 39.0657 64.8485C38.9387 65.2045 38.5878 65.7175 38.4338 66.1615C38.2878 66.5845 38.2877 67.0485 38.1197 67.4845C37.8467 68.1965 37.4298 69.6405 36.5628 69.7415C37.1848 70.5345 37.9117 70.1155 38.7017 70.4185C39.0987 70.5705 39.3278 71.0195 39.7008 71.1535C39.9618 71.2475 40.3207 70.9535 40.6557 71.0735C41.2517 71.2865 41.7427 71.6595 42.3227 71.8975C43.6427 72.4405 42.9757 71.9395 43.5807 73.0545C44.1597 74.1205 44.9897 74.9395 45.5807 76.0255C45.7427 76.3235 46.1527 76.7205 46.2627 77.0575C46.4607 77.6635 46.1067 78.4415 46.2627 79.0615C46.3947 79.5875 46.8727 79.7585 47.0057 80.2215C47.1667 80.7865 47.0057 81.5985 47.0057 82.1785C47.0057 83.3765 47.0057 84.5735 47.0057 85.7705C47.0057 85.9735 47.1307 87.1095 47.0057 87.3785C46.8597 87.6925 46.3687 87.8465 46.2227 88.1605C45.8587 88.9445 46.2227 91.1595 46.2227 92.0335C46.2227 92.5525 46.2227 93.0725 46.2227 93.5915C46.2227 93.8485 46.2227 94.1055 46.2227 94.3615C46.4017 94.9005 46.2527 95.3035 45.7747 95.5705C45.5037 96.3795 45.5488 95.3085 45.4078 96.7815C45.3558 97.3275 45.4078 97.9335 45.4078 98.4885C45.4078 98.9845 45.4918 99.6995 45.4078 100.212C45.2558 101.144 44.9777 101.084 44.7377 101.831C44.3827 102.939 44.5327 104.052 44.0607 105.106C43.6827 105.95 43.7498 105.097 43.6148 106.444C43.5428 107.158 43.7788 108.071 43.6148 108.772C43.4198 109.603 42.6517 110.375 42.3317 111.169C41.8487 112.367 42.3117 113.412 41.9747 114.614C41.5607 116.093 40.6127 117.434 40.1797 118.93C39.9577 119.696 39.7537 120.319 39.5007 121.014C39.1487 121.984 39.3417 123.135 38.9267 124.167C38.6937 124.748 38.3468 125.343 38.0578 125.898C37.5738 126.827 37.7568 127.088 37.5018 128.05C37.2938 128.836 36.4487 129.729 36.1417 130.547C35.8307 131.375 35.6488 132.249 35.3208 133.071C34.6548 134.74 33.1777 136.286 33.1777 138.019C33.1777 139.179 32.8597 140.038 32.2897 141.044C31.7627 141.975 31.7597 142.435 31.4667 143.405C31.2727 144.047 30.9987 144.287 30.5307 144.754C29.8217 145.463 30.0427 145.523 29.7317 146.377C29.5217 146.953 29.5627 147.12 29.2847 147.719C28.9607 148.417 28.9788 148.58 28.8348 149.417C28.6828 150.3 29.0018 149.852 28.2648 150.631C27.4708 151.472 27.3968 151.148 27.0848 152.166C26.8068 153.072 26.9458 153.448 26.3388 154.252C25.1778 155.791 24.2187 157.712 23.6087 159.498C22.8907 161.601 21.1867 163.347 20.0397 165.344C19.5767 166.15 18.6637 166.947 18.3907 167.61C18.2797 167.879 18.3177 168.568 18.2957 168.644C18.1787 169.058 17.1427 168.508 17.8667 169.441C18.1147 169.186 18.3267 168.906 18.5177 168.61C18.8317 168.659 18.2857 168.975 18.5177 168.61ZM24.0537 50.3005C25.5487 48.8055 26.8968 46.6165 27.7778 44.7375C28.4928 43.2125 30.1928 41.7485 30.5968 39.9385C30.9168 38.5035 29.7598 37.8455 28.4888 37.5155C27.1288 37.1625 27.8317 37.7905 26.5437 37.9955C26.3877 37.8395 26.2318 37.6835 26.0758 37.5275C25.8738 37.2235 25.6167 37.2755 25.3047 37.6855C24.0387 37.8355 22.9957 38.5785 21.7977 38.8825C20.9147 39.1065 20.7487 39.0765 20.0197 39.5555C19.6107 39.9465 19.2017 40.3375 18.7917 40.7275C18.5607 40.6585 18.3377 40.6655 18.1227 40.7485C17.4287 41.1695 16.9527 41.9345 16.2447 42.3155C15.1757 42.8905 14.7847 42.5935 14.1487 43.7865C13.2317 45.5055 11.0278 47.5465 11.4738 49.6285C11.7318 50.8315 12.7087 52.2335 13.7487 52.8635C14.1887 53.1305 14.9437 53.4815 15.4717 53.5555C16.4857 53.6965 15.9357 53.5115 16.7367 53.2615C17.3947 53.0565 17.7587 52.8835 18.5247 52.8835C19.0657 52.8835 20.0967 53.0925 20.6167 52.8835C22.1287 52.2755 22.2437 50.3015 24.0537 50.3005C24.3587 49.9945 23.7657 50.3005 24.0537 50.3005ZM27.9697 79.5295C27.9697 78.1795 28.1207 77.7245 28.8497 76.5595C27.4617 76.4535 27.4187 76.7715 26.3627 77.5915C25.6907 78.1145 24.9547 78.4005 24.2827 78.9445C23.4497 79.6185 22.5127 79.8225 21.6887 80.5015C20.7757 81.2535 19.9507 82.2525 19.1287 83.0955C18.1517 84.0965 17.0197 85.0045 16.0957 86.0475C15.3547 86.8835 14.9357 87.9325 14.2477 88.8025C13.9967 89.1195 13.3367 89.5205 13.1837 89.8635C13.0077 90.2565 13.1387 92.0465 13.1837 92.4825C13.2757 93.3815 13.8807 94.7345 14.4617 95.5765C15.0847 94.9535 15.6937 94.1535 16.3677 93.6115C16.9697 93.1265 17.6677 93.0195 18.3147 92.6125C19.7967 91.6805 20.4067 89.6595 21.6247 88.4125C22.3517 87.6675 23.2227 86.9775 23.8667 86.1605C24.3907 85.4955 24.5897 84.8525 24.9777 84.0845C25.7787 82.4985 26.4687 80.5935 27.9697 79.5295C27.9697 78.8325 26.0267 80.9075 27.9697 79.5295Z" fill="#E01A4F"/>
</svg>
