<svg width="50" height="95" viewBox="0 0 50 95" fill="none" xmlns="http://www.w3.org/2000/svg">
<path d="M10.3177 27.1862C11.5237 26.5832 11.3777 25.4692 11.9207 24.2122C12.3607 23.1952 12.7697 22.3412 13.0877 21.3742C13.3227 20.6602 13.5917 19.6902 13.9857 19.0022C14.2457 18.5482 14.6367 18.2722 14.9047 17.8572C15.1667 17.6452 15.3987 17.4042 15.6007 17.1352C15.5067 16.7292 15.5187 16.3272 15.6387 15.9282C15.8447 14.9962 16.5247 13.4912 17.2067 12.8212C17.6247 12.4112 18.2347 12.3532 18.6547 12.0022C19.2707 11.4872 19.0847 11.2702 19.5707 10.5462C20.2287 9.5652 21.2467 9.0032 21.8417 7.9212C22.1287 7.3982 22.0137 7.02518 22.5047 6.61218C23.0117 6.18618 23.5887 6.32519 24.1207 5.98019C25.1107 5.33719 24.9947 4.7272 26.2067 4.4942C27.4567 4.2532 28.4007 3.74518 29.6007 3.16418C30.7177 2.62318 31.5327 2.03518 32.7207 1.86218C34.2627 1.63818 37.3257 1.42718 38.8127 1.86218C39.1307 1.95518 39.6837 2.5222 40.0927 2.6752C40.7557 2.9232 41.4757 2.94918 42.1567 3.23318C43.3507 3.73118 44.5017 4.47117 45.4597 5.31817C46.3117 6.07217 48.3587 7.60318 48.7547 8.62918C48.7547 8.83518 48.7547 9.04018 48.7547 9.24618C48.5677 9.81018 48.7147 10.2432 49.1957 10.5452C49.5017 11.4792 49.7767 12.3612 49.6157 13.5102C49.4117 14.9732 48.2607 15.8922 47.8917 17.2852C47.7287 17.9012 48.0337 18.6372 47.8917 19.2592C47.7517 19.8722 47.2107 20.6092 46.9257 21.1732C46.2587 22.4962 45.7037 24.1542 44.8237 25.3402C43.8407 26.6652 42.3417 27.8062 41.1697 28.9702C40.2387 29.8952 39.4097 30.8972 38.2477 31.4772C36.9527 32.1232 36.0387 32.7042 34.8417 33.5222C33.7607 34.2602 32.3967 35.0222 31.1847 35.5122C30.4447 35.8112 29.7437 35.7702 29.0087 35.9752C28.7377 36.1282 28.5187 36.3372 28.3517 36.6032C27.7897 36.6032 27.2287 36.6032 26.6667 36.6032C26.3807 36.6032 26.0957 36.6032 25.8097 36.6032C25.2297 36.4122 24.7777 36.5582 24.4557 37.0432C24.2947 37.1872 24.1337 37.3312 23.9727 37.4752C23.6657 37.1962 23.3587 36.9162 23.0517 36.6372C21.6717 36.0402 19.3677 36.8912 17.8677 36.6372C17.5817 36.6372 17.2957 36.6372 17.0097 36.6372C16.6947 36.3482 16.3787 36.0602 16.0637 35.7722C15.7637 35.6962 15.2327 35.8002 15.0027 35.9962C14.3657 36.5372 14.8837 40.4662 14.8827 41.3562C14.8807 43.0902 14.8807 44.8242 14.8807 46.5572C14.8807 47.4812 14.8637 48.0192 15.2027 48.8452C15.4557 49.4632 15.9547 49.9792 16.2147 50.5942C16.7357 51.8242 16.0977 53.3192 16.5777 54.4752C16.7267 54.6422 16.8757 54.8092 17.0247 54.9762C17.4517 55.2522 17.5867 55.6392 17.4297 56.1372C17.2717 56.6882 17.4307 57.1232 17.9077 57.4442C18.2127 57.8312 18.4987 58.2322 18.7647 58.6462C19.7117 60.1002 20.4177 61.6912 21.1557 63.2562C21.4027 63.7812 21.7077 64.8812 22.1317 65.2762C22.4857 65.3142 22.8387 65.3522 23.1927 65.3902C23.4247 65.6662 23.6577 65.9422 23.8897 66.2182C24.2307 66.6242 25.0377 67.2952 25.2067 67.7832C25.5367 68.7372 25.0607 68.9702 25.9257 69.7192C26.2757 70.0222 26.8717 70.0132 27.2507 70.3132C27.9027 70.8292 28.2137 71.5882 28.9627 72.0322C30.0397 72.6712 30.8097 73.3692 31.8317 74.0772C32.4697 74.5192 32.3857 73.8102 32.9467 74.5702C33.0717 74.9302 33.1957 75.2902 33.3207 75.6492C33.7117 75.7332 34.1027 75.8172 34.4937 75.9012C34.9977 76.1672 35.5517 76.9592 35.9567 77.3642C36.8787 78.2862 36.9627 78.1672 38.1307 78.3792C39.2947 78.5902 38.9287 78.9042 39.8297 79.6282C40.7247 80.3472 40.7017 80.1852 41.8617 79.9182C41.7767 79.8172 41.1657 79.2332 41.1837 79.1112C41.1157 79.0302 41.0477 78.9492 40.9797 78.8682C41.1827 78.6442 41.3857 78.4212 41.5887 78.1972C41.8147 77.4502 41.7997 76.6572 41.7997 75.8022C41.7997 73.6282 41.7997 71.4542 41.7997 69.2802C41.7997 68.9022 41.7017 68.3332 41.7997 67.9692C41.9417 67.4422 42.1357 67.4892 42.3297 67.0322C42.5847 66.4312 42.6657 66.0952 42.6687 65.3102C42.6727 64.4492 42.6727 63.5882 42.6727 62.7272C42.6727 61.0472 43.3077 61.2872 44.0617 60.0602C44.6347 59.1282 44.0067 57.7042 45.2147 57.1322C46.0807 56.7222 46.2937 57.3322 47.0987 58.0722C47.9547 58.8582 47.7137 59.0052 47.9157 60.0322C48.0627 60.7762 48.5487 61.1482 48.7167 61.8602C48.8927 62.6092 48.7167 63.6772 48.7167 64.4422C48.7167 65.2512 48.5727 65.5732 48.3487 66.2162C48.2147 66.6012 48.0217 66.6412 47.9037 67.0922C47.7367 67.7302 47.9037 68.5832 47.9037 69.2572C47.9037 71.1512 47.9037 73.0442 47.9037 74.9382C47.9037 75.9552 47.9037 76.9712 47.9037 77.9882C47.9037 78.3662 47.9977 78.9202 47.9037 79.2852C47.7607 79.8382 47.3997 79.9162 47.2157 80.4042C46.6807 81.8232 47.2187 83.5672 46.9857 85.1232C46.8607 85.9572 46.3747 86.3132 46.4367 86.9282C46.5287 87.8542 47.1317 87.6172 46.7087 88.7142C46.5577 89.1062 46.2787 89.3992 46.1337 89.8072C45.9587 90.3012 46.1367 90.6532 45.8617 91.1362C45.6917 91.4342 45.3007 91.7342 45.0647 91.9852C44.5947 92.4862 44.1317 93.1432 43.5867 93.5602C42.7037 94.2362 41.8117 94.0562 40.6597 94.0562C38.9127 94.0562 37.1657 94.0562 35.4187 94.0562C34.7537 94.0562 33.2727 94.3272 32.6317 94.0562C32.4017 93.9592 32.2897 93.5692 32.0567 93.4812C31.4647 93.2582 31.0937 93.2592 30.3567 93.2592C29.4777 93.2592 28.5977 93.2592 27.7187 93.2592C26.5657 93.2592 26.2997 92.6132 25.3517 92.3392C24.4917 92.0902 23.4067 92.6032 22.5517 92.3392C21.9177 92.1432 21.5927 91.6242 20.8927 91.4572C20.1527 91.2802 19.3397 91.6182 18.5877 91.4952C18.2867 91.4462 18.0587 91.3362 17.7777 91.2472C17.5757 91.1762 17.4097 91.0552 17.2797 90.8832C17.1067 90.5882 16.8607 90.5442 16.5397 90.7502C15.5877 90.4512 14.1767 89.4562 13.1727 89.7372C13.1727 88.9892 12.8777 87.6522 13.5077 87.1842C14.2177 86.6572 17.0137 87.1272 17.9337 87.1262C19.3737 87.1252 20.8137 87.1242 22.2537 87.1242C22.9307 87.1242 24.1787 86.9442 24.8297 87.1242C25.2147 87.2302 25.4937 87.6832 25.9387 87.8172C27.1897 88.1932 28.9517 87.9732 30.2557 88.0102C31.7017 88.0502 33.1477 88.0672 34.5937 88.0482C36.7077 88.0192 38.8757 87.9782 40.9587 87.5792C38.9647 86.7592 36.7707 85.6992 35.1647 84.3662C33.3147 82.8312 31.1497 81.8932 29.3897 80.2202C28.9217 79.7742 28.4367 79.1472 27.8757 78.8152C27.1967 78.4132 27.3927 78.6512 26.5357 78.3962C25.3857 78.0542 24.6647 77.2202 23.7237 76.3482C23.5127 76.1532 22.9787 75.7682 22.7997 75.4922C22.5747 75.1442 22.6507 74.4302 22.3717 74.1212C22.2477 73.9842 21.5517 74.1622 21.4117 74.0672C20.8807 73.7072 20.4007 73.0942 19.9947 72.5922C19.2967 71.7302 18.8807 70.7002 18.1677 69.8562C17.5157 69.0832 16.4267 68.5412 15.8617 67.7142C15.3177 66.9192 14.8597 65.4812 14.4337 64.5832C14.2507 64.1962 14.1057 63.6832 13.8917 63.3072C13.5257 62.6622 12.7627 62.2402 12.4457 61.6302C12.0327 60.8352 12.0897 59.8112 11.6307 58.8852C11.1167 57.8492 10.5317 56.9432 10.4277 55.7762C10.3727 55.1682 10.3917 54.7682 10.2447 54.2652C10.0617 53.6392 9.68167 53.6762 9.56267 52.8722C9.37167 51.5782 9.65367 50.2052 9.33967 49.0102C9.15667 48.3142 8.89067 48.5582 8.76067 47.5692C8.69067 47.0362 8.76067 46.3922 8.76067 45.8432C8.76067 44.3992 8.76067 42.9552 8.76067 41.5112C8.76067 40.0582 8.76067 38.6052 8.76067 37.1522C8.76067 36.8272 8.63067 35.7762 8.76067 35.4002C9.17167 34.2142 9.89767 34.5932 9.27467 33.3192C8.99767 32.7532 8.00767 31.8272 7.47367 31.4702C6.59667 30.8842 6.58367 31.5772 5.96067 30.5222C5.76567 30.1922 5.69067 29.8182 5.47167 29.4922C4.37467 27.8552 3.16967 26.8022 2.45667 24.8682C1.76767 23.0002 1.21267 21.2062 0.567666 19.3832C0.0836658 18.0162 0.114667 16.8622 0.114667 15.3082C0.114667 13.6982 0.114667 12.0882 0.114667 10.4782C0.114667 9.24818 -0.143333 7.73619 0.114667 6.53219C0.245667 6.40219 0.375665 6.2712 0.505665 6.1412C0.935665 5.8762 1.05267 5.48219 0.856667 4.95819C0.937667 4.44119 0.694667 3.76419 0.856667 3.27819C1.00167 2.84319 1.78267 1.65419 2.05467 1.22219C2.62867 0.309195 3.59567 -0.291825 4.75267 0.146175C5.37067 0.380175 5.99867 1.25117 5.94267 1.92617C5.83367 3.22417 5.59567 2.10118 4.76367 2.78018C4.29667 3.16118 4.42467 3.7382 4.38867 4.2662C4.17967 7.3692 4.37467 10.5532 4.37467 13.6642C4.37467 14.3992 4.40967 14.9522 4.60867 15.5602C4.80767 15.7592 5.00667 15.9582 5.20567 16.1582C5.20567 16.7182 5.20567 17.2792 5.20567 17.8402C5.20567 19.2412 5.52867 19.8562 6.17467 21.0582C7.36567 23.2712 8.09267 25.7382 10.3177 27.1862C10.7827 26.9542 7.38867 25.2802 10.3177 27.1862ZM32.0437 7.05618C30.8167 7.38718 29.8637 8.11517 28.9687 8.98617C28.5937 9.35117 28.2397 9.89017 27.7987 10.1802C27.1817 10.5862 26.7027 10.6142 26.0757 11.0062C23.7367 12.4682 22.1627 15.7272 21.0917 18.1202C20.6397 19.1312 20.0787 20.4232 19.3747 21.2882C18.9727 21.7822 18.4647 22.0592 18.2797 22.5822C18.1127 23.0542 18.2247 23.7712 18.0917 24.2082C17.7857 25.2082 17.2187 26.6352 16.7287 27.6512C15.9847 29.1962 15.7707 29.6292 15.6557 31.3332C16.8327 31.3332 18.6647 31.0172 19.6827 31.5282C20.6977 32.0382 20.8667 32.3592 22.2117 32.2412C23.4967 32.1292 23.9297 31.4212 25.3077 31.4212C26.5097 31.4212 27.1527 31.3042 28.2507 30.7582C29.2367 30.2672 30.0997 29.9792 31.1327 29.6632C32.1247 29.3602 32.0427 29.1892 32.9727 28.5172C33.7127 27.9822 33.8637 28.1622 34.7427 27.9202C35.6287 27.6772 36.8137 26.3702 37.4897 25.6532C37.8777 25.2412 38.0467 24.8652 38.3447 24.4602C38.4077 24.2532 38.4697 24.0462 38.5327 23.8392C38.5577 23.5472 38.7577 23.4742 39.1307 23.6192C39.3327 23.6062 39.5347 23.5922 39.7367 23.5792C39.7887 23.3332 39.8447 23.0872 39.9057 22.8432C40.1567 22.5382 40.4247 22.0542 40.6907 21.7082C41.3827 20.8102 41.8707 19.8782 42.3917 18.8732C42.9677 17.7622 43.1127 16.7442 43.5217 15.6302C43.6367 15.3172 44.3447 14.7332 44.3557 14.4382C44.3597 14.3242 43.5487 13.2752 43.4837 12.9972C43.3407 12.3812 43.6107 11.6752 43.4837 11.0542C43.3127 10.2182 43.1147 10.0152 42.5467 9.29818C42.2677 8.94618 41.9657 8.33618 41.6007 8.10318C41.1157 7.79418 40.6977 8.00018 40.1407 7.88418C39.3977 7.73018 39.3267 7.30318 38.6447 7.05618C38.2197 6.90318 37.4237 7.05618 36.9677 7.05618C35.3257 7.05618 33.6847 7.05618 32.0437 7.05618C34.2157 7.05618 29.7507 7.67618 32.0437 7.05618Z" fill="#E01A4F"/>
</svg>
