<?xml version="1.0" encoding="utf-8"?>
<!-- Generator: Adobe Illustrator 27.5.0, SVG Export Plug-In . SVG Version: 6.00 Build 0)  -->
<svg version="1.1" xmlns="http://www.w3.org/2000/svg" xmlns:xlink="http://www.w3.org/1999/xlink" x="0px" y="0px"
	 viewBox="0 0 500 500" style="enable-background:new 0 0 500 500;" xml:space="preserve">
<g id="BACKGROUND">
	<g>
		<rect style="fill:#FFFFFF;" width="500" height="500"/>
		<g>
			<path style="fill:#E6ECFF;" d="M0,0v500h500V0H0z M499.002,31.188h-30.19V0.998h30.19V31.188z M250.499,218.313v-30.19h30.19
				v30.19H250.499z M280.689,219.311v30.19h-30.19v-30.19H280.689z M249.501,218.313h-30.19v-30.19h30.19V218.313z M249.501,219.311
				v30.19h-30.19v-30.19H249.501z M218.313,249.501h-30.19v-30.19h30.19V249.501z M218.313,250.499v30.19h-30.19v-30.19H218.313z
				 M219.311,250.499h30.19v30.19h-30.19V250.499z M249.501,281.687v30.19h-30.19v-30.19H249.501z M250.499,281.687h30.19v30.19
				h-30.19V281.687z M250.499,280.689v-30.19h30.19v30.19H250.499z M281.687,250.499h30.19v30.19h-30.19V250.499z M281.687,249.501
				v-30.19h30.19v30.19H281.687z M281.687,218.313v-30.19h30.19v30.19H281.687z M281.687,187.126v-30.19h30.19v30.19H281.687z
				 M280.689,187.126h-30.19v-30.19h30.19V187.126z M249.501,187.126h-30.19v-30.19h30.19V187.126z M218.313,187.126h-30.19v-30.19
				h30.19V187.126z M218.313,188.124v30.19h-30.19v-30.19H218.313z M187.126,218.313h-30.19v-30.19h30.19V218.313z M187.126,219.311
				v30.19h-30.19v-30.19H187.126z M187.126,250.499v30.19h-30.19v-30.19H187.126z M187.126,281.687v30.19h-30.19v-30.19H187.126z
				 M188.124,281.687h30.19v30.19h-30.19V281.687z M218.313,312.874v30.19h-30.19v-30.19H218.313z M219.311,312.874h30.19v30.19
				h-30.19V312.874z M250.499,312.874h30.19v30.19h-30.19V312.874z M281.687,312.874h30.19v30.19h-30.19V312.874z M281.687,311.876
				v-30.19h30.19v30.19H281.687z M312.874,281.687h30.19v30.19h-30.19V281.687z M312.874,280.689v-30.19h30.19v30.19H312.874z
				 M312.874,249.501v-30.19h30.19v30.19H312.874z M312.874,218.313v-30.19h30.19v30.19H312.874z M312.874,187.126v-30.19h30.19
				v30.19H312.874z M312.874,155.938v-30.19h30.19v30.19H312.874z M311.876,155.938h-30.19v-30.19h30.19V155.938z M280.689,155.938
				h-30.19v-30.19h30.19V155.938z M249.501,155.938h-30.19v-30.19h30.19V155.938z M218.313,155.938h-30.19v-30.19h30.19V155.938z
				 M187.126,155.938h-30.19v-30.19h30.19V155.938z M187.126,156.936v30.19h-30.19v-30.19H187.126z M155.938,187.126h-30.19v-30.19
				h30.19V187.126z M155.938,188.124v30.19h-30.19v-30.19H155.938z M155.938,219.311v30.19h-30.19v-30.19H155.938z M155.938,250.499
				v30.19h-30.19v-30.19H155.938z M155.938,281.687v30.19h-30.19v-30.19H155.938z M155.938,312.874v30.19h-30.19v-30.19H155.938z
				 M156.936,312.874h30.19v30.19h-30.19V312.874z M187.126,344.062v30.19h-30.19v-30.19H187.126z M188.124,344.062h30.19v30.19
				h-30.19V344.062z M219.311,344.062h30.19v30.19h-30.19V344.062z M250.499,344.062h30.19v30.19h-30.19V344.062z M281.687,344.062
				h30.19v30.19h-30.19V344.062z M312.874,344.062h30.19v30.19h-30.19V344.062z M312.874,343.064v-30.19h30.19v30.19H312.874z
				 M344.062,312.874h30.19v30.19h-30.19V312.874z M344.062,311.876v-30.19h30.19v30.19H344.062z M344.062,280.689v-30.19h30.19
				v30.19H344.062z M344.062,249.501v-30.19h30.19v30.19H344.062z M344.062,218.313v-30.19h30.19v30.19H344.062z M344.062,187.126
				v-30.19h30.19v30.19H344.062z M344.062,155.938v-30.19h30.19v30.19H344.062z M344.062,124.751v-30.19h30.19v30.19H344.062z
				 M343.064,124.751h-30.19v-30.19h30.19V124.751z M311.876,124.751h-30.19v-30.19h30.19V124.751z M280.689,124.751h-30.19v-30.19
				h30.19V124.751z M249.501,124.751h-30.19v-30.19h30.19V124.751z M218.313,124.751h-30.19v-30.19h30.19V124.751z M187.126,124.751
				h-30.19v-30.19h30.19V124.751z M155.938,124.751h-30.19v-30.19h30.19V124.751z M155.938,125.748v30.19h-30.19v-30.19H155.938z
				 M124.75,155.938h-30.19v-30.19h30.19V155.938z M124.75,156.936v30.19h-30.19v-30.19H124.75z M124.75,188.124v30.19h-30.19
				v-30.19H124.75z M124.75,219.311v30.19h-30.19v-30.19H124.75z M124.75,250.499v30.19h-30.19v-30.19H124.75z M124.75,281.687
				v30.19h-30.19v-30.19H124.75z M124.75,312.874v30.19h-30.19v-30.19H124.75z M124.75,344.062v30.19h-30.19v-30.19H124.75z
				 M125.748,344.062h30.19v30.19h-30.19V344.062z M155.938,375.25v30.19h-30.19v-30.19H155.938z M156.936,375.25h30.19v30.19
				h-30.19V375.25z M188.124,375.25h30.19v30.19h-30.19V375.25z M219.311,375.25h30.19v30.19h-30.19V375.25z M250.499,375.25h30.19
				v30.19h-30.19V375.25z M281.687,375.25h30.19v30.19h-30.19V375.25z M312.874,375.25h30.19v30.19h-30.19V375.25z M344.062,375.25
				h30.19v30.19h-30.19V375.25z M344.062,374.251v-30.19h30.19v30.19H344.062z M375.25,344.062h30.19v30.19h-30.19V344.062z
				 M375.25,343.064v-30.19h30.19v30.19H375.25z M375.25,311.876v-30.19h30.19v30.19H375.25z M375.25,280.689v-30.19h30.19v30.19
				H375.25z M375.25,249.501v-30.19h30.19v30.19H375.25z M375.25,218.313v-30.19h30.19v30.19H375.25z M375.25,187.126v-30.19h30.19
				v30.19H375.25z M375.25,155.938v-30.19h30.19v30.19H375.25z M375.25,124.751v-30.19h30.19v30.19H375.25z M375.25,93.563v-30.19
				h30.19v30.19H375.25z M374.252,93.563h-30.19v-30.19h30.19V93.563z M343.064,93.563h-30.19v-30.19h30.19V93.563z M311.876,93.563
				h-30.19v-30.19h30.19V93.563z M280.689,93.563h-30.19v-30.19h30.19V93.563z M249.501,93.563h-30.19v-30.19h30.19V93.563z
				 M218.313,93.563h-30.19v-30.19h30.19V93.563z M187.126,93.563h-30.19v-30.19h30.19V93.563z M155.938,93.563h-30.19v-30.19h30.19
				V93.563z M124.75,93.563h-30.19v-30.19h30.19V93.563z M124.75,94.561v30.19h-30.19v-30.19H124.75z M93.563,124.751h-30.19v-30.19
				h30.19V124.751z M93.563,125.748v30.19h-30.19v-30.19H93.563z M93.563,156.936v30.19h-30.19v-30.19H93.563z M93.563,188.124
				v30.19h-30.19v-30.19H93.563z M93.563,219.311v30.19h-30.19v-30.19H93.563z M93.563,250.499v30.19h-30.19v-30.19H93.563z
				 M93.563,281.687v30.19h-30.19v-30.19H93.563z M93.563,312.874v30.19h-30.19v-30.19H93.563z M93.563,344.062v30.19h-30.19v-30.19
				H93.563z M93.563,375.25v30.19h-30.19v-30.19H93.563z M94.561,375.25h30.19v30.19h-30.19V375.25z M124.75,406.437v30.19h-30.19
				v-30.19H124.75z M125.748,406.437h30.19v30.19h-30.19V406.437z M156.936,406.437h30.19v30.19h-30.19V406.437z M188.124,406.437
				h30.19v30.19h-30.19V406.437z M219.311,406.437h30.19v30.19h-30.19V406.437z M250.499,406.437h30.19v30.19h-30.19V406.437z
				 M281.687,406.437h30.19v30.19h-30.19V406.437z M312.874,406.437h30.19v30.19h-30.19V406.437z M344.062,406.437h30.19v30.19
				h-30.19V406.437z M375.25,406.437h30.19v30.19h-30.19V406.437z M375.25,405.439v-30.19h30.19v30.19H375.25z M406.437,375.25
				h30.19v30.19h-30.19V375.25z M406.437,374.251v-30.19h30.19v30.19H406.437z M406.437,343.064v-30.19h30.19v30.19H406.437z
				 M406.437,311.876v-30.19h30.19v30.19H406.437z M406.437,280.689v-30.19h30.19v30.19H406.437z M406.437,249.501v-30.19h30.19
				v30.19H406.437z M406.437,218.313v-30.19h30.19v30.19H406.437z M406.437,187.126v-30.19h30.19v30.19H406.437z M406.437,155.938
				v-30.19h30.19v30.19H406.437z M406.437,124.751v-30.19h30.19v30.19H406.437z M406.437,93.563v-30.19h30.19v30.19H406.437z
				 M406.437,62.375v-30.19h30.19v30.19H406.437z M405.439,62.375h-30.19v-30.19h30.19V62.375z M374.252,62.375h-30.19v-30.19h30.19
				V62.375z M343.064,62.375h-30.19v-30.19h30.19V62.375z M311.876,62.375h-30.19v-30.19h30.19V62.375z M280.689,62.375h-30.19
				v-30.19h30.19V62.375z M249.501,62.375h-30.19v-30.19h30.19V62.375z M218.313,62.375h-30.19v-30.19h30.19V62.375z
				 M187.126,62.375h-30.19v-30.19h30.19V62.375z M155.938,62.375h-30.19v-30.19h30.19V62.375z M124.75,62.375h-30.19v-30.19h30.19
				V62.375z M93.563,62.375h-30.19v-30.19h30.19V62.375z M93.563,63.373v30.19h-30.19v-30.19H93.563z M62.375,93.563h-30.19v-30.19
				h30.19V93.563z M62.375,94.561v30.19h-30.19v-30.19H62.375z M62.375,125.748v30.19h-30.19v-30.19H62.375z M62.375,156.936v30.19
				h-30.19v-30.19H62.375z M62.375,188.124v30.19h-30.19v-30.19H62.375z M62.375,219.311v30.19h-30.19v-30.19H62.375z
				 M62.375,250.499v30.19h-30.19v-30.19H62.375z M62.375,281.687v30.19h-30.19v-30.19H62.375z M62.375,312.874v30.19h-30.19v-30.19
				H62.375z M62.375,344.062v30.19h-30.19v-30.19H62.375z M62.375,375.25v30.19h-30.19v-30.19H62.375z M62.375,406.437v30.19h-30.19
				v-30.19H62.375z M63.373,406.437h30.19v30.19h-30.19V406.437z M93.563,437.625v30.19h-30.19v-30.19H93.563z M94.561,437.625
				h30.19v30.19h-30.19V437.625z M125.748,437.625h30.19v30.19h-30.19V437.625z M156.936,437.625h30.19v30.19h-30.19V437.625z
				 M188.124,437.625h30.19v30.19h-30.19V437.625z M219.311,437.625h30.19v30.19h-30.19V437.625z M250.499,437.625h30.19v30.19
				h-30.19V437.625z M281.687,437.625h30.19v30.19h-30.19V437.625z M312.874,437.625h30.19v30.19h-30.19V437.625z M344.062,437.625
				h30.19v30.19h-30.19V437.625z M375.25,437.625h30.19v30.19h-30.19V437.625z M406.437,437.625h30.19v30.19h-30.19V437.625z
				 M406.437,436.627v-30.19h30.19v30.19H406.437z M437.625,406.437h30.19v30.19h-30.19V406.437z M437.625,405.439v-30.19h30.19
				v30.19H437.625z M437.625,374.251v-30.19h30.19v30.19H437.625z M437.625,343.064v-30.19h30.19v30.19H437.625z M437.625,311.876
				v-30.19h30.19v30.19H437.625z M437.625,280.689v-30.19h30.19v30.19H437.625z M437.625,249.501v-30.19h30.19v30.19H437.625z
				 M437.625,218.313v-30.19h30.19v30.19H437.625z M437.625,187.126v-30.19h30.19v30.19H437.625z M437.625,155.938v-30.19h30.19
				v30.19H437.625z M437.625,124.751v-30.19h30.19v30.19H437.625z M437.625,93.563v-30.19h30.19v30.19H437.625z M437.625,62.375
				v-30.19h30.19v30.19H437.625z M437.625,31.188V0.998h30.19v30.19H437.625z M436.627,31.188h-30.19V0.998h30.19V31.188z
				 M405.439,31.188h-30.19V0.998h30.19V31.188z M374.252,31.188h-30.19V0.998h30.19V31.188z M343.064,31.188h-30.19V0.998h30.19
				V31.188z M311.876,31.188h-30.19V0.998h30.19V31.188z M280.689,31.188h-30.19V0.998h30.19V31.188z M249.501,31.188h-30.19V0.998
				h30.19V31.188z M218.313,31.188h-30.19V0.998h30.19V31.188z M187.126,31.188h-30.19V0.998h30.19V31.188z M155.938,31.188h-30.19
				V0.998h30.19V31.188z M124.75,31.188h-30.19V0.998h30.19V31.188z M93.563,31.188h-30.19V0.998h30.19V31.188z M62.375,31.188
				h-30.19V0.998h30.19V31.188z M62.375,32.186v30.19h-30.19v-30.19H62.375z M31.188,62.375H0.998v-30.19h30.19V62.375z
				 M31.188,63.373v30.19H0.998v-30.19H31.188z M31.188,94.561v30.19H0.998v-30.19H31.188z M31.188,125.748v30.19H0.998v-30.19
				H31.188z M31.188,156.936v30.19H0.998v-30.19H31.188z M31.188,188.124v30.19H0.998v-30.19H31.188z M31.188,219.311v30.19H0.998
				v-30.19H31.188z M31.188,250.499v30.19H0.998v-30.19H31.188z M31.188,281.687v30.19H0.998v-30.19H31.188z M31.188,312.874v30.19
				H0.998v-30.19H31.188z M31.188,344.062v30.19H0.998v-30.19H31.188z M31.188,375.25v30.19H0.998v-30.19H31.188z M31.188,406.437
				v30.19H0.998v-30.19H31.188z M31.188,437.625v30.19H0.998v-30.19H31.188z M32.186,437.625h30.19v30.19h-30.19V437.625z
				 M62.375,468.812v30.19h-30.19v-30.19H62.375z M63.373,468.812h30.19v30.19h-30.19V468.812z M94.561,468.812h30.19v30.19h-30.19
				V468.812z M125.748,468.812h30.19v30.19h-30.19V468.812z M156.936,468.812h30.19v30.19h-30.19V468.812z M188.124,468.812h30.19
				v30.19h-30.19V468.812z M219.311,468.812h30.19v30.19h-30.19V468.812z M250.499,468.812h30.19v30.19h-30.19V468.812z
				 M281.687,468.812h30.19v30.19h-30.19V468.812z M312.874,468.812h30.19v30.19h-30.19V468.812z M344.062,468.812h30.19v30.19
				h-30.19V468.812z M375.25,468.812h30.19v30.19h-30.19V468.812z M406.437,468.812h30.19v30.19h-30.19V468.812z M437.625,468.812
				h30.19v30.19h-30.19V468.812z M437.625,467.814v-30.19h30.19v30.19H437.625z M468.812,437.625h30.19v30.19h-30.19V437.625z
				 M468.812,436.627v-30.19h30.19v30.19H468.812z M468.812,405.439v-30.19h30.19v30.19H468.812z M468.812,374.251v-30.19h30.19
				v30.19H468.812z M468.812,343.064v-30.19h30.19v30.19H468.812z M468.812,311.876v-30.19h30.19v30.19H468.812z M468.812,280.689
				v-30.19h30.19v30.19H468.812z M468.812,249.501v-30.19h30.19v30.19H468.812z M468.812,218.313v-30.19h30.19v30.19H468.812z
				 M468.812,187.126v-30.19h30.19v30.19H468.812z M468.812,155.938v-30.19h30.19v30.19H468.812z M468.812,124.751v-30.19h30.19
				v30.19H468.812z M468.812,93.563v-30.19h30.19v30.19H468.812z M468.812,62.375v-30.19h30.19v30.19H468.812z M31.188,0.998v30.19
				H0.998V0.998H31.188z M0.998,468.812h30.19v30.19H0.998V468.812z M468.812,499.002v-30.19h30.19v30.19H468.812z"/>
		</g>
	</g>
</g>
<g id="OBJECTS">
	<g>
		<g>
			<path style="fill:#404040;" d="M266.687,296.017c-8.719,3.473-16.192,9.744-20.193,18.369c-3.836,8.27-3.578,18.215,3.719,24.436
				c2.534,2.161,6.209-1.399,3.701-3.701c-12.981-11.914,2.433-30.48,13.977-36.247
				C269.449,298.094,268.345,295.356,266.687,296.017L266.687,296.017z"/>
		</g>
		<g>
			<path style="fill:#404040;" d="M246.479,304.162c7.542-1.668,14.968-3.811,22.508-5.527c-0.726-1.247-1.452-2.495-2.178-3.742
				c-6.081,6.288-9.5,12.489-8.991,21.443c0.125,2.193,3.501,2.226,3.438,0c-0.181-6.373,2.725-14.323,8.267-17.927
				c2.249-1.462,0.714-4.437-1.725-4.092c-7.924,1.121-15.455,3.583-22.025,8.167C244.927,303.074,245.431,304.394,246.479,304.162
				L246.479,304.162z"/>
		</g>
		<g>
			<path style="fill:#404040;" d="M244.77,311.111c-6.162,7.162-6.984,16.6-2.863,25.007c0.493,1.006,2.031,0.12,1.511-0.883
				c-3.973-7.663-3.032-16.721,1.818-23.764C245.426,311.195,244.99,310.855,244.77,311.111L244.77,311.111z"/>
		</g>
		<g>
			<path style="fill:#404040;" d="M244.511,339.597c1.337,0,1.339-2.078,0-2.078C243.174,337.519,243.172,339.597,244.511,339.597
				L244.511,339.597z"/>
		</g>
	</g>
	<g>
		<g>
			<path style="fill:#404040;" d="M428.907,206.923c3.697,2.539,8.042,3.032,12.331,1.733c3.178-0.963,8.094-3.553,8.767-7.234
				c0.678-3.704-2.882-6.714-5.978-7.845c-4.723-1.726-9.825-0.418-13.836,2.381c-7.919,5.527-13.493,15.63-7.07,24.408
				c7.388,10.098,21.757,7.733,31.854,4.102c2.966-1.067,1.816-5.416-1.308-4.746c-6.404,1.374-13.214,3.526-19.734,1.626
				c-6.925-2.018-10.641-8.837-6.742-15.263c1.485-2.447,3.672-4.884,6.064-6.49c2.191-1.471,8.015-3.967,10.346-1.391
				c2.044,2.258,0.811,4.731-1.279,5.977c-1.225,0.731-2.635,1.261-4.028,1.559c-2.865,0.612-5.842,0.166-8.603-0.674
				C428.538,204.715,427.995,206.296,428.907,206.923L428.907,206.923z"/>
		</g>
		<g>
			<path style="fill:#404040;" d="M440.627,212.293c3.424,6.008,8.826,9.649,15.438,11.45c-0.207-1.58-0.413-3.161-0.62-4.741
				c-7.184,4.626-13.482,11.563-16.27,19.75c-0.781,2.292,2.736,3.74,3.891,1.64c3.879-7.051,8.083-12.558,14.998-16.91
				c1.847-1.163,1.598-4.157-0.62-4.741c-5.706-1.504-10.763-4.283-15.481-7.784C441.14,210.347,440.178,211.505,440.627,212.293
				L440.627,212.293z"/>
		</g>
		<g>
			<path style="fill:#404040;" d="M418.822,219.434c0.376,6.51,6.101,11.369,12.212,12.431c1.06,0.184,1.52-1.432,0.449-1.627
				c-6.14-1.12-9.683-5.319-11.771-10.924C419.546,218.867,418.791,218.888,418.822,219.434L418.822,219.434z"/>
		</g>
		<g>
			<path style="fill:#404040;" d="M435.086,232.144c1.387,0,1.39-2.156,0-2.156C433.699,229.988,433.696,232.144,435.086,232.144
				L435.086,232.144z"/>
		</g>
	</g>
	<g>
		<g>
			<path style="fill:#404040;" d="M228.207,212.475c5.215-5.038,15.667-9.939,21.939-3.995c3.971,3.764,5.94,8.719,10.904,11.56
				c10.506,6.011,20.573-4.078,25.249-12.907c1.014-1.916-0.976-3.634-2.806-2.806c-5.946,2.69-8.937,12.297-16.302,11.779
				c-6.699-0.471-9.505-7.906-14.007-11.66c-8.616-7.184-20.604-1.144-27.27,5.736C224.46,211.684,226.704,213.927,228.207,212.475
				L228.207,212.475z"/>
		</g>
		<g>
			<path style="fill:#404040;" d="M233.972,196.122c-3.448,4.91-7.062,9.729-10.22,14.833c-1.005,1.625,0.293,3.848,2.188,3.813
				c7.174-0.132,13.992,0.702,20.978,2.292c2.604,0.593,3.465-2.964,1.08-3.917c-6.967-2.787-14.585-3.864-22.058-3.443
				c0.729,1.271,1.459,2.542,2.188,3.813c2.96-5.215,5.452-10.694,8.104-16.07C236.982,195.922,234.939,194.745,233.972,196.122
				L233.972,196.122z"/>
		</g>
		<g>
			<path style="fill:#404040;" d="M257.912,203.76c1.67,3.408,3.72,6.311,7.668,7.188c2.988,0.664,6.134-0.106,7.951-2.66
				c0.382-0.537-0.392-1.339-0.93-0.93c-5.127,3.896-10.776,0.743-14.095-3.945C258.251,203.052,257.716,203.359,257.912,203.76
				L257.912,203.76z"/>
		</g>
		<g>
			<path style="fill:#404040;" d="M276.414,204.988c-0.015-0.013-0.029-0.025-0.044-0.038c-0.679-0.586-1.565-0.316-1.88,0.496
				c-0.007,0.018-0.014,0.037-0.021,0.055c-0.331,0.853,0.643,1.649,1.432,1.432C276.698,206.714,277.092,205.572,276.414,204.988
				L276.414,204.988z"/>
		</g>
	</g>
	<g>
		<g>
			<path style="fill:#404040;" d="M66.564,286.62c-7.368,7.237-12.868,25.322-3.73,33.363c6.972,6.135,25.026-1.209,20.973-11.445
				c-1.978-4.996-8.177-4.636-12.271-2.631c-5.296,2.595-8.618,8-9.402,13.74c-1.583,11.596,8.835,24.101,21.104,21.084
				c2.272-0.559,2.493-4.416,0-4.821c-6.339-1.032-12.6-3.092-14.72-9.905c-0.898-2.886-0.798-6.125,0.257-8.963
				c0.906-2.437,5.576-9,8.998-7.215c2.326,1.213-0.233,3.986-1.25,4.85c-1.553,1.321-3.534,2.487-5.557,2.78
				c-4.786,0.694-7.288-2.882-8.077-7.202c-1.336-7.316,0.67-16.081,5.857-21.454C70.126,287.372,67.984,285.225,66.564,286.62
				L66.564,286.62z"/>
		</g>
		<g>
			<path style="fill:#404040;" d="M59.449,340.945c6.986,3.175,16.321,2.559,23.744,1.683c3.545-0.419,3.605-6.03,0-5.625
				c-7.65,0.859-15.994,0.138-23.464,1.801C58.798,339.01,58.527,340.526,59.449,340.945L59.449,340.945z"/>
		</g>
		<g>
			<path style="fill:#404040;" d="M73.129,324.906c-0.076,3.391,1.817,6.92,3.425,9.826c1.572,2.841,3.444,6.886,7.013,7.084
				c0.988,0.055,2.221-0.803,2.392-1.821c0.581-3.457-2.449-5.895-4.42-8.481c-2.004-2.629-3.786-5.74-6.47-7.721
				C74.243,323.184,73.149,324.016,73.129,324.906L73.129,324.906z"/>
		</g>
		<g>
			<path style="fill:#404040;" d="M56.895,291.406c-5.35,6.735-6.304,16.417-4.564,24.608c0.369,1.735,2.942,0.985,2.637-0.727
				c-1.506-8.441,0.09-15.508,2.489-23.554C57.547,291.43,57.11,291.136,56.895,291.406L56.895,291.406z"/>
		</g>
		<g>
			<path style="fill:#404040;" d="M57.775,319.82c-0.011-0.067-0.031-0.132-0.06-0.193c-0.556-1.408-2.32-1.411-2.878,0
				c-0.029,0.061-0.05,0.126-0.06,0.193c-0.229,0.979,0.465,1.968,1.499,1.968C57.305,321.788,58.004,320.799,57.775,319.82
				L57.775,319.82z"/>
		</g>
	</g>
	<g>
		<g>
			<g>
				<path style="fill:#404040;" d="M88.362,175.876c-4.013,11.368-11.103,20.303-16.834,30.722c-1.61,2.927,2.433,5.05,4.351,2.543
					c7.061-9.226,12.956-21.093,14.705-32.653C90.803,175.042,88.865,174.45,88.362,175.876L88.362,175.876z"/>
			</g>
			<g>
				<path style="fill:#404040;" d="M72.683,185.886c2.556-0.875,5.041-1.931,7.45-3.155c2.712-1.378,5.143-3.796,7.856-4.978
					c0.41-0.316,0.82-0.632,1.23-0.949c0.095,0.978,0.301,1.932,0.616,2.861c0.31,1.416,0.633,2.828,0.932,4.246
					c0.625,2.966,1.019,5.969,1.628,8.934c0.456,2.22,4.04,1.724,3.952-0.535c-0.162-4.16-0.739-8.559-1.565-12.647
					c-0.54-2.672-1.724-6.717-4.738-7.615c-2.822-0.841-5.644,2.458-7.567,3.931c-3.588,2.747-7.168,5.51-10.743,8.275
					C70.955,184.855,71.801,186.188,72.683,185.886L72.683,185.886z"/>
			</g>
			<g>
				<path style="fill:#404040;" d="M48.061,211.788c4.013-11.368,11.104-20.303,16.834-30.722c1.61-2.927-2.433-5.05-4.351-2.543
					c-7.061,9.226-12.956,21.093-14.705,32.653C45.62,212.622,47.558,213.214,48.061,211.788L48.061,211.788z"/>
			</g>
			<g>
				<path style="fill:#404040;" d="M63.74,201.778c-2.556,0.875-5.041,1.931-7.45,3.155c-2.711,1.378-5.143,3.796-7.856,4.977
					c-0.41,0.316-0.82,0.632-1.23,0.949c-0.095-0.978-0.301-1.932-0.616-2.861c-0.31-1.416-0.633-2.828-0.932-4.246
					c-0.625-2.966-1.019-5.969-1.628-8.934c-0.456-2.22-4.04-1.724-3.951,0.535c0.162,4.16,0.739,8.559,1.565,12.647
					c0.54,2.672,1.724,6.717,4.738,7.615c2.822,0.841,5.644-2.458,7.567-3.931c3.588-2.747,7.168-5.511,10.743-8.275
					C65.468,202.809,64.622,201.476,63.74,201.778L63.74,201.778z"/>
			</g>
		</g>
		<g>
			<path style="fill:#404040;" d="M88.934,193.505c-2.69,4.532-5.322,9.148-7.955,13.714c-0.751,1.302,1.226,2.451,2.01,1.175
				c2.729-4.441,5.145-9.586,6.716-14.564C89.85,193.368,89.175,193.098,88.934,193.505L88.934,193.505z"/>
		</g>
		<g>
			<path style="fill:#404040;" d="M78.97,214.087c1.87,0,1.873-2.906,0-2.906C77.1,211.181,77.097,214.087,78.97,214.087
				L78.97,214.087z"/>
		</g>
		<g>
			<path style="fill:#404040;" d="M63.881,187.145c-1.432,1.909-2.762,3.887-3.985,5.937c-0.609,1.02-1.198,2.053-1.782,3.087
				c-0.291,0.517-0.579,1.036-0.864,1.556c-0.494,0.827-0.594,1.025-0.299,0.594c-1.228,0.521-0.349,2.628,0.915,2.171
				c1.704-0.617,2.072-3.418,2.769-4.91c1.262-2.699,2.646-5.34,4-7.993C64.899,187.074,64.214,186.702,63.881,187.145
				L63.881,187.145z"/>
		</g>
		<g>
			<path style="fill:#404040;" d="M67.395,183.5c-0.072-0.081-0.17-0.153-0.262-0.209c-0.39-0.234-1.077-0.127-1.272,0.334
				c-0.005,0.011-0.009,0.021-0.013,0.032c-0.329,0.777,0.208,1.593,1.088,1.416c0.016-0.003,0.031-0.006,0.047-0.009
				C67.714,184.915,67.83,183.987,67.395,183.5L67.395,183.5z"/>
		</g>
	</g>
	<g>
		<g>
			<g>
				<path style="fill:#404040;" d="M442.998,301.054c-4.013,11.368-11.104,20.302-16.834,30.722
					c-1.61,2.927,2.433,5.049,4.351,2.543c7.061-9.226,12.956-21.093,14.705-32.653
					C445.439,300.219,443.501,299.628,442.998,301.054L442.998,301.054z"/>
			</g>
			<g>
				<path style="fill:#404040;" d="M427.319,311.063c2.556-0.875,5.041-1.931,7.45-3.155c2.711-1.378,5.143-3.796,7.856-4.978
					c0.41-0.316,0.82-0.633,1.23-0.949c0.095,0.978,0.301,1.932,0.616,2.861c0.31,1.415,0.633,2.828,0.932,4.246
					c0.625,2.966,1.019,5.969,1.628,8.934c0.456,2.22,4.04,1.724,3.952-0.535c-0.162-4.16-0.739-8.559-1.565-12.647
					c-0.54-2.672-1.724-6.717-4.738-7.615c-2.822-0.841-5.644,2.458-7.567,3.931c-3.588,2.747-7.168,5.51-10.743,8.275
					C425.591,310.032,426.436,311.365,427.319,311.063L427.319,311.063z"/>
			</g>
			<g>
				<path style="fill:#404040;" d="M443.042,318.328c-3.14,4.661-5.105,10.137-9.022,14.282c-0.808,0.855,0.486,2.153,1.293,1.293
					c3.72-3.967,7.122-9.99,8.415-15.285C443.83,318.195,443.278,317.978,443.042,318.328L443.042,318.328z"/>
			</g>
		</g>
		<g>
			<path style="fill:#404040;" d="M434.065,335.596c-0.269-0.294-0.589-0.42-0.949-0.566c-0.522-0.212-1.331,0.133-1.571,0.639
				c-0.24,0.508-0.24,0.896,0,1.404c0.236,0.499,1.043,0.853,1.571,0.639c0.36-0.146,0.683-0.275,0.949-0.566
				C434.478,336.695,434.48,336.051,434.065,335.596L434.065,335.596z"/>
		</g>
	</g>
	<g>
		<g>
			<path style="fill:#404040;" d="M132.449,302.964c6.166-5.876,14.15-9.387,22.791-8.612c4.799,0.431,8.623,1.745,9.567,7.04
				c0.636,3.566,0.476,7.255,1.619,10.732c1.855,5.638,6.786,9.134,12.552,9.95c7.528,1.065,14.492-2.568,20.809-6.19
				c2.864-1.643,0.319-5.97-2.583-4.418c-6.987,3.736-20.701,10.446-25.801,0.195c-2.83-5.689-0.407-14.38-6.16-18.616
				c-4.65-3.423-12.531-3.084-17.813-1.969c-6.547,1.381-12.56,4.88-16.75,10.121C129.698,302.426,131.255,304.101,132.449,302.964
				L132.449,302.964z"/>
		</g>
		<g>
			<path style="fill:#404040;" d="M178.554,310.644c7.075,3.178,14.402,3.844,22.077,3.028c-0.59-1.028-1.179-2.055-1.769-3.083
				c-2.092,4.234-5.889,6.846-8.666,10.562c-2.753,3.684-4.959,7.842-6.683,12.098c-0.839,2.071,2.45,3.322,3.534,1.49
				c2.617-4.421,4.644-9.018,8.11-12.9c2.705-3.03,5.48-5.458,7.243-9.182c0.581-1.228-0.077-3.291-1.769-3.083
				c-7.141,0.879-14.194,0.271-21.279-0.823C178.306,308.591,177.385,310.119,178.554,310.644L178.554,310.644z"/>
		</g>
		<g>
			<path style="fill:#404040;" d="M139.221,301.806c5.404-1.823,13.558-5.764,18.836-1.984c0.843,0.604,1.648-0.791,0.812-1.39
				c-5.669-4.061-14.672-0.493-19.907,2.759C138.651,301.386,138.848,301.932,139.221,301.806L139.221,301.806z"/>
		</g>
		<g>
			<path style="fill:#404040;" d="M160.674,302.326c1.428,0,1.43-2.219,0-2.219C159.247,300.108,159.244,302.326,160.674,302.326
				L160.674,302.326z"/>
		</g>
	</g>
	<g>
		<g>
			<path style="fill:#404040;" d="M173.633,157.982c-5.754,1.478-10.96,4.373-15.021,8.755c-3.07,3.312-6.611,7.937-3.32,12.271
				c3.381,4.451,10.873,5.27,15.842,6.728c0.427,0.125,4.961,1.033,5.045,1.657c0.162,1.219-3.551,2.991-4.402,3.583
				c-2.712,1.886-5.767,3.619-8.2,5.882c-3.064,2.849-4.812,8-1.344,11.318c1.61,1.54,3.939,1.827,6.02,2.247
				c1.53,0.309,4.73,0.294,5.997,1.178c1.8,1.257-0.053,2.125-1.477,3.493c-3.981,3.823-8.477,8.7-7.297,14.753
				c0.887,4.553,5.348,8.375,10.007,6.843c2.811-0.924,2.035-4.525-0.659-4.872c-6.46-0.834-2.891-7.776-0.368-10.556
				c1.775-1.956,3.943-3.539,5.642-5.571c1.929-2.306,2.612-5.239,0.274-7.498c-3.2-3.092-8.575-1.783-12.361-3.441
				c-4.302-1.883,0.335-4.697,2.707-6.392c2.525-1.804,5.136-3.498,7.63-5.344c2.398-1.775,4.615-4.311,3.197-7.466
				c-1.504-3.348-5.917-3.963-9.04-4.781c-2.918-0.764-5.92-1.395-8.795-2.303c-3.96-1.252-6.205-2.68-3.912-6.97
				c2.805-5.247,9.153-9.055,14.512-11.066C175.813,159.866,175.245,157.568,173.633,157.982L173.633,157.982z"/>
		</g>
		<g>
			<path style="fill:#404040;" d="M152.634,160.433c7.082,1.114,15.006,1.256,22.118,0.357c-0.573-0.998-1.145-1.996-1.718-2.994
				c-2.535,5.358-4.321,10.754-4.945,16.672c-0.269,2.546,3.623,2.465,3.945,0c0.67-5.129,2.008-10.075,4.436-14.663
				c0.732-1.384-0.191-2.897-1.718-2.994c-7.164-0.452-15.112,0.17-22.118,1.739C151.736,158.751,151.67,160.282,152.634,160.433
				L152.634,160.433z"/>
		</g>
		<g>
			<path style="fill:#404040;" d="M154.647,183.176c3.178,2.806,7.694,4.59,11.832,5.398c0.82,0.16,1.499-1.08,0.614-1.456
				c-3.927-1.669-8.073-2.794-12.001-4.518C154.742,182.446,154.306,182.875,154.647,183.176L154.647,183.176z"/>
		</g>
		<g>
			<path style="fill:#404040;" d="M170.281,189.67c1.397,0,1.4-2.172,0-2.172C168.884,187.498,168.882,189.67,170.281,189.67
				L170.281,189.67z"/>
		</g>
	</g>
	<g>
		<g>
			<path style="fill:#404040;" d="M384.037,181.512c-21.581,4.463-40.363,16.584-53.374,34.372c-2.63,3.595,3.367,7.049,5.97,3.49
				c11.887-16.251,29.175-28.192,48.609-33.493C388.075,185.109,386.874,180.926,384.037,181.512L384.037,181.512z"/>
		</g>
		<g>
			<path style="fill:#404040;" d="M358.375,182.863c4.308,1.065,8.9,0.494,13.308,0.599c5.031,0.12,10.051,0.594,15.065,0.99
				c-0.508-1.226-1.016-2.452-1.524-3.678c-4.63,5.626-11.145,12.071-13.602,19.003c-0.69,1.946,2.106,3.515,3.46,2.014
				c2.238-2.479,3.608-5.573,5.501-8.327c2.331-3.392,4.87-6.644,7.689-9.643c1.085-1.154,0.665-3.188-0.951-3.601
				c-8.576-2.197-21.266-3.425-29.071,1.68C357.885,182.137,357.915,182.749,358.375,182.863L358.375,182.863z"/>
		</g>
		<g>
			<path style="fill:#404040;" d="M365.577,197.667c-7.337,3.339-13.686,8.422-18.903,14.543c-1.159,1.359,0.788,3.341,1.978,1.978
				c5.197-5.956,11.02-11.084,17.328-15.833C366.388,198.047,366.05,197.452,365.577,197.667L365.577,197.667z"/>
		</g>
		<g>
			<path style="fill:#404040;" d="M343.855,218.398c0.026,0.012,0.053,0.024,0.079,0.035c0.705,0.317,1.589,0.227,2.001-0.525
				c0.203-0.371,0.32-0.822,0.164-1.235c-0.221-0.586-0.642-0.917-1.268-0.965c-0.329-0.025-0.711,0.06-0.976,0.258
				c-0.41,0.307-0.697,0.675-0.697,1.215C343.158,217.637,343.417,218.201,343.855,218.398L343.855,218.398z"/>
		</g>
	</g>
	<g>
		<g>
			<path style="fill:#404040;" d="M337.314,329.955c4.304-7.099,10.311-12.952,17.561-17.039c3.304-1.862,7.12-3.879,10.978-4.05
				c7.499-0.333,5.361,7.792,3.183,12.11c-1.853,3.671-6.479,10.765-11.645,9.004c-3.166-1.08-4.102-5.073-1.89-7.522
				c1.397-1.546,3.797-2.088,5.772-2.049c8.552,0.168,15.893,7.479,21.243,13.295c1.844,2.005,5.318-0.618,3.804-2.935
				c-5.916-9.049-22.861-21.535-33.606-12.997c-4.353,3.458-5.107,9.439-1.805,13.908c4.058,5.492,11.184,4.515,16.011,0.621
				c7.463-6.021,16.568-28.559-0.4-28.113c-13.371,0.352-25.635,13.599-31.499,24.427
				C334.206,330.118,336.425,331.42,337.314,329.955L337.314,329.955z"/>
		</g>
		<g>
			<path style="fill:#404040;" d="M384.01,311.377c0.377,0,0.378-0.586,0-0.586C383.633,310.791,383.633,311.377,384.01,311.377
				L384.01,311.377z"/>
		</g>
		<g>
			<path style="fill:#404040;" d="M381.628,311.767c-1.858,6.363-2.144,14.684-0.382,21.083c0.781,2.835,5.443,2.373,5.256-0.711
				c-0.218-3.609-1.113-7.217-1.622-10.802c-0.453-3.194-0.766-6.414-1.445-9.57C383.235,310.832,381.876,310.918,381.628,311.767
				L381.628,311.767z"/>
		</g>
		<g>
			<path style="fill:#404040;" d="M367.121,338.522c3.414-0.192,6.785-0.562,10.156-1.137c3.094-0.529,6.521-0.564,8.319-3.425
				c0.877-1.395-0.072-2.839-1.377-3.385c-2.819-1.181-5.683,0.766-8.322,1.803c-3.052,1.198-6.083,2.424-9.108,3.69
				C365.609,336.561,365.576,338.609,367.121,338.522L367.121,338.522z"/>
		</g>
		<g>
			<path style="fill:#404040;" d="M336.91,318.213c2.296-2.488,4.91-4.804,7.582-6.88c2.726-2.119,5.791-3.613,8.571-5.605
				c0.964-0.691,0.432-2.45-0.861-2.042c-6.748,2.132-12.304,8.237-15.881,14.072C336.101,318.118,336.618,318.529,336.91,318.213
				L336.91,318.213z"/>
		</g>
		<g>
			<path style="fill:#404040;" d="M357.683,300.72c-0.024-0.006-0.048-0.013-0.072-0.019c-0.613-0.163-1.293,0.108-1.615,0.657
				c-0.345,0.589-0.178,1.23,0.224,1.733c0.016,0.02,0.032,0.04,0.048,0.06c0.597,0.747,1.85,0.448,2.284-0.294
				C359.02,302.056,358.592,300.962,357.683,300.72L357.683,300.72z"/>
		</g>
	</g>
	<g>
		<g>
			<path style="fill:#404040;" d="M39.193,450.022c4.655-10.352,12.763-19.069,23.813-22.548c5.824-1.833,12.069-2.142,18.056-0.96
				c5.809,1.146,10.532,4.237,15.928,6.371c2.107,0.833,3.144-2.041,1.995-3.428c-8.324-10.049-26.69-10.806-38.014-6.63
				c-11.672,4.305-21.145,14.001-24.384,26.096C36.184,450.429,38.511,451.539,39.193,450.022L39.193,450.022z"/>
		</g>
		<g>
			<path style="fill:#404040;" d="M87.897,414.952c1.793,2.802,3.432,5.858,4.867,8.867c1.37,2.872,1.945,6.325,3.998,8.76
				c1.432,1.698,4.007,0.215,4.101-1.699c0.161-3.287-2.213-6.81-3.958-9.482c-2.02-3.093-4.35-5.512-7.168-7.867
				C88.78,412.732,87.13,413.754,87.897,414.952L87.897,414.952z"/>
		</g>
		<g>
			<path style="fill:#404040;" d="M81.22,439.143c6.155-1.031,11.985-3.627,17.747-5.945c4.076-1.639,1.729-7.43-2.363-5.605
				c-5.815,2.595-11.712,5.453-16.334,9.917C79.511,438.243,80.32,439.294,81.22,439.143L81.22,439.143z"/>
		</g>
		<g>
			<path style="fill:#404040;" d="M51.299,439.163c7.396-5.759,14.339-10.558,24.244-9.309c0.719,0.091,0.893-1.155,0.172-1.274
				c-9.473-1.558-19.455,2.107-25.018,10.119C50.427,439.088,50.987,439.406,51.299,439.163L51.299,439.163z"/>
		</g>
		<g>
			<path style="fill:#404040;" d="M79.534,430.384c0.053-0.021,0.106-0.042,0.159-0.063c0.429-0.17,0.644-0.693,0.279-1.058
				c-0.365-0.365-0.888-0.149-1.058,0.279c-0.021,0.053-0.042,0.106-0.063,0.159C78.703,430.078,79.158,430.533,79.534,430.384
				L79.534,430.384z"/>
		</g>
	</g>
	<g>
		<g>
			<path style="fill:#404040;" d="M247.305,421.205c3.347,11.082,17.881,10.104,21.814-0.168c1.889-4.934,1.128-11.405-2.399-15.466
				c-3.62-4.168-9.52-4.287-14.463-2.724c-12.408,3.924-14.623,17.104-10.075,28.019c4.831,11.594,17.243,18.959,29.701,15.662
				c3.738-0.99,2.104-6.301-1.568-5.688c-13.591,2.27-27.058-10.078-24.192-24.241c1.182-5.842,12.347-13.39,17.056-6.654
				c2.46,3.519,2.254,9.16-0.617,12.379c-3.636,4.076-10.637,3.891-12.696-1.824C249.295,418.913,246.804,419.546,247.305,421.205
				L247.305,421.205z"/>
		</g>
		<g>
			<path style="fill:#404040;" d="M262.569,431.072c1.633,5.017,4.405,9.71,7.493,13.953c2.213,3.04,6.603-0.288,4.111-3.172
				c-3.346-3.872-6.326-8.007-9.515-11.997C263.869,428.868,262.199,429.936,262.569,431.072L262.569,431.072z"/>
		</g>
		<g>
			<path style="fill:#404040;" d="M253.672,457.24c3.568-2.02,7.055-4.191,10.639-6.184c3.074-1.71,7.252-2.634,9.283-5.581
				c0.789-1.145,0.017-3.027-1.342-3.299c-3.817-0.766-7.651,2.031-10.83,3.937c-3.776,2.264-7.081,4.979-9.856,8.397
				C250.376,455.975,251.848,458.273,253.672,457.24L253.672,457.24z"/>
		</g>
		<g>
			<path style="fill:#404040;" d="M239.652,406.161c-5.798,9.188-6.647,22.754,0.596,31.341c0.954,1.131,2.572-0.5,1.624-1.624
				c-6.6-7.825-5.785-20.506-1.478-29.283C240.636,406.101,239.95,405.689,239.652,406.161L239.652,406.161z"/>
		</g>
		<g>
			<path style="fill:#404040;" d="M245.179,441.007c-0.004-0.042-0.008-0.084-0.012-0.126c-0.081-0.833-0.68-1.646-1.605-1.605
				c-0.939,0.042-1.518,0.707-1.605,1.605c-0.004,0.042-0.008,0.084-0.012,0.126c-0.082,0.845,0.802,1.654,1.617,1.617
				C244.368,442.588,245.267,441.909,245.179,441.007L245.179,441.007z"/>
		</g>
	</g>
	<g>
		<g>
			<path style="fill:#404040;" d="M414.071,438.031c11.399,0.619,23.229,0.444,34.546,1.794c1.994,0.238,3.449-1.828,3.558-3.558
				c0.583-9.243,1.371-18.125,2.532-27.32c0.529-4.188-6.129-4.847-7.213-0.976c-2.443,8.728-3.407,19.293-2.435,28.296
				c1.186-1.186,2.372-2.372,3.558-3.558c-11.316,1.367-23.149,1.209-34.546,1.846C411.836,434.68,411.831,437.91,414.071,438.031
				L414.071,438.031z"/>
		</g>
		<g>
			<path style="fill:#404040;" d="M463.064,421.552c-3.631-3.955-6.276-9.285-8.707-14.036c-1.789-3.497-6.752-0.43-5.194,3.036
				c1.262,2.808,3.07,5.411,5.055,7.759c1.986,2.349,4.512,3.883,6.953,5.695C462.65,425.103,464.21,422.799,463.064,421.552
				L463.064,421.552z"/>
		</g>
		<g>
			<path style="fill:#404040;" d="M435.881,423.194c3.423-1.679,6.853-4.14,9.894-6.437c2.705-2.043,6.505-4.696,6.748-8.318
				c0.098-1.462-1.676-2.969-3.115-2.373c-1.892,0.783-2.64,2.002-4.061,3.422c-1.404,1.404-2.975,2.62-4.489,3.9
				c-2.739,2.317-5.758,4.745-7.1,8.173C433.256,422.843,434.869,423.691,435.881,423.194L435.881,423.194z"/>
		</g>
		<g>
			<path style="fill:#404040;" d="M420.258,443.401c5.206,0.452,10.983,1.124,16.177,0.445c1.373-0.179,1.376-1.961,0-2.141
				c-5.196-0.679-10.966-0.007-16.177,0.445C419.455,442.221,419.453,443.331,420.258,443.401L420.258,443.401z"/>
		</g>
		<g>
			<path style="fill:#404040;" d="M441.489,444.047c0.985,0,0.987-1.531,0-1.531C440.504,442.516,440.503,444.047,441.489,444.047
				L441.489,444.047z"/>
		</g>
	</g>
	<g>
		<g>
			<path style="fill:#404040;" d="M67.937,43.629c-10.184,9.798-20.172,19.791-30.027,29.92c-0.988,1.015-0.313,2.991,1.208,2.917
				c4.656-0.228,9.295-0.202,13.947,0.095c-0.402-0.97-0.803-1.94-1.205-2.91c-2.312,2.348-2.027,6.402-2.293,9.476
				c-0.416,4.807-0.63,9.629-0.673,14.454c-0.02,2.283-0.373,5.683,2.142,6.915c1.345,0.659,3.197,0.146,4.612,0.018
				c2.569-0.231,5.153-0.277,7.731-0.254c4.663,0.043,9.316,0.389,13.974,0.578c2.399,0.097,6.139,0.858,7.425-1.837
				c0.769-1.611,0.414-3.89,0.477-5.611c0.088-2.387,0.176-4.774,0.264-7.162c0.195-5.29,0.59-10.648-0.018-15.915
				c-0.163-1.416-2.425-2.059-2.739-0.371c-1.186,6.385-1.051,12.992-1.254,19.468c-0.05,1.591-0.089,3.184-0.15,4.774
				c-0.103,2.694,0.296,2.853-2.454,2.727c-3.362-0.154-6.73-0.296-10.096-0.34c-3.101-0.04-6.206-0.017-9.301,0.181
				c-1.546,0.099-3.909,0.824-5.4,0.504c-2.334-0.501-1.851-2.353-1.831-4.481c0.03-3.217,0.159-6.432,0.369-9.641
				c0.178-2.712-0.26-9.169,1.624-11.074c1.089-1.101,0.235-2.814-1.205-2.91c-4.653-0.307-9.29-0.347-13.947-0.104
				c0.403,0.972,0.805,1.945,1.208,2.917c9.83-10.168,19.477-20.503,28.88-31.067C69.971,44.039,68.777,42.821,67.937,43.629
				L67.937,43.629z"/>
		</g>
		<g>
			<path style="fill:#404040;" d="M83.819,74.178c4.027,1.476,8.208,1.117,12.415,0.919c1.552-0.073,2.446-1.96,1.292-3.118
				c-4.659-4.675-9.63-9.033-14.308-13.693c-4.633-4.616-8.879-9.917-13.976-14.019c-1.04-0.837-2.82,0.223-1.989,1.534
				c3.428,5.411,8.364,9.996,12.816,14.556c4.773,4.889,9.589,9.865,14.873,14.205c0.269-1.018,0.537-2.035,0.806-3.053
				c-3.891,1.632-7.658,1.416-11.763,1.441C83.25,72.955,83.176,73.942,83.819,74.178L83.819,74.178z"/>
		</g>
		<g>
			<path style="fill:#404040;" d="M53.982,81.169c-0.123,4.077-0.553,8.108-0.773,12.171c-0.057,1.047,1.65,1.301,1.851,0.251
				c0.778-4.064,0.514-8.487-0.297-12.527C54.672,80.61,53.995,80.734,53.982,81.169L53.982,81.169z"/>
		</g>
		<g>
			<path style="fill:#404040;" d="M54.242,97.681c1.65,0,1.653-2.564,0-2.564C52.592,95.116,52.59,97.681,54.242,97.681
				L54.242,97.681z"/>
		</g>
		<g>
			<path style="fill:#404040;" d="M70.824,56.24c1.326,1.967,2.817,3.83,4.518,5.488c1.787,1.741,3.857,3.146,5.537,4.998
				c0.759,0.837,1.964-0.392,1.233-1.233c-1.557-1.791-3.586-3.097-5.377-4.639c-1.859-1.601-3.592-3.315-5.237-5.135
				C71.175,55.362,70.549,55.833,70.824,56.24L70.824,56.24z"/>
		</g>
		<g>
			<path style="fill:#404040;" d="M83.267,67.101c-0.523,0.151-0.957,0.492-1.082,1.043c-0.093,0.409,0.051,1.001,0.483,1.187
				c0.507,0.219,1.038,0.267,1.503-0.086c0.466-0.353,0.734-0.887,0.48-1.465C84.421,67.256,83.84,66.935,83.267,67.101
				L83.267,67.101z"/>
		</g>
	</g>
	<g>
		<g>
			<g>
				<path style="fill:#404040;" d="M444.519,40.216c-7.905,4.31-14.62,10.831-21.2,16.882c-1.522,1.4,0.75,3.662,2.267,2.267
					c6.589-6.06,13.37-11.717,20.351-17.311C447.005,41.198,445.643,39.603,444.519,40.216L444.519,40.216z"/>
			</g>
			<g>
				<path style="fill:#404040;" d="M444.949,40.529c0.591,7.634,3.646,15.879,7.341,22.541c0.593-0.771,1.186-1.543,1.779-2.314
					c-2.516-0.521-5.021-1.073-7.547-1.547c-0.933-0.175-2.212,0.436-2.082,1.586c1.438,12.743-0.946,25.982,6.481,37.247
					c0.191-0.729,0.382-1.458,0.573-2.187c-4.838,3.39-9.819,6.566-14.862,9.64c0.723,0.189,1.445,0.379,2.168,0.568
					c-7.195-14.27-12.352-30.261-7.833-46.214c0.308-1.089-0.536-1.938-1.553-2.039c-1.607-0.159-3.214-0.294-4.824-0.429
					c-2.097-0.176-2.085,3.095,0,3.27c1.608,0.135,3.214,0.269,4.824,0.38c-0.518-0.68-1.035-1.359-1.553-2.039
					c-3.419,16.886,0.677,33.455,8.203,48.67c0.376,0.759,1.475,0.988,2.168,0.568c5.056-3.061,9.984-6.302,14.876-9.616
					c0.726-0.492,1.018-1.39,0.573-2.187c-6.013-10.787-4.969-23.754-5.952-35.634c-0.694,0.529-1.388,1.057-2.082,1.586
					c2.522,0.513,5.053,0.947,7.583,1.413c1.344,0.248,2.459-1.043,1.779-2.314c-3.643-6.812-5.112-14.56-8.687-21.323
					C445.991,39.53,444.892,39.796,444.949,40.529L444.949,40.529z"/>
			</g>
		</g>
		<g>
			<path style="fill:#404040;" d="M430.729,69.845c-0.929,6.468,0.066,12.514,2.625,18.505c0.51,1.193,2.262,0.165,1.749-1.022
				c-2.374-5.498-3.433-11.395-3.518-17.366C431.579,69.491,430.801,69.343,430.729,69.845L430.729,69.845z"/>
		</g>
		<g>
			<path style="fill:#404040;" d="M437.076,92.373c-0.078-0.081-0.156-0.162-0.234-0.243c-0.923-0.959-2.419,0.536-1.46,1.46
				c0.081,0.078,0.162,0.156,0.243,0.234C436.577,94.741,437.993,93.326,437.076,92.373L437.076,92.373z"/>
		</g>
		<g>
			<path style="fill:#404040;" d="M444.029,47.051c0.136,2.731,0.465,5.432,0.98,8.117c0.196,1.018,1.858,0.589,1.57-0.433
				c-0.723-2.568-1.262-5.166-1.619-7.81C444.889,46.396,444.002,46.522,444.029,47.051L444.029,47.051z"/>
		</g>
		<g>
			<path style="fill:#404040;" d="M447.166,58.515c1.342,0,1.344-2.086,0-2.086C445.824,56.43,445.821,58.515,447.166,58.515
				L447.166,58.515z"/>
		</g>
	</g>
	<g>
		<g>
			<path style="fill:#404040;" d="M226.25,75.158c10.316-8.62,19.677-18.456,29.622-27.507c-0.759,0-1.519,0-2.278,0
				c9.698,9.864,19.084,20.014,29.12,29.55c0.405-0.978,0.81-1.956,1.215-2.934c-4.046,0.16-8.127-0.001-12.169-0.232
				c-1.169-0.067-2.054,1.207-1.74,2.284c2.072,7.098,3.635,14.281,4.434,21.638c0.067,0.618,0.6,4.432,0.41,4.494
				c-0.4,0.13-1.813-1.221-2.294-1.474c-2.162-1.135-4.458-1.252-6.813-1.564c-5.376-0.713-9.559-4.763-15.108-2.583
				c-6.095,2.395-12.329,5.396-18.178,8.39c0.689,0.396,1.379,0.791,2.068,1.187c0.671-5.67,1.704-11.306,2.521-16.956
				c0.682-4.718,1.167-9.431,2.455-14.033c0.347-1.239-0.648-2.734-2.015-2.645c-3.787,0.247-7.548,0.634-11.342,0.821
				c-2.007,0.099-2.035,3.15,0,3.141c3.798-0.015,7.552,0.171,11.342,0.216c-0.672-0.882-1.343-1.763-2.015-2.645
				c-3.459,9.994-2.521,21.69-3.695,32.1c-0.131,1.159,1.235,1.546,2.068,1.187c3.879-1.674,7.597-3.646,11.359-5.559
				c4.201-2.136,7.769-3.61,12.385-1.595c3.004,1.311,5.629,2.196,8.88,2.775c1.178,0.209,2.417,0.34,3.545,0.751
				c1.392,0.508,2.505,1.749,3.925,2.125c6.003,1.59,4.086-6.643,3.702-9.628c-0.915-7.118-2.293-14.173-4.154-21.103
				c-0.58,0.761-1.16,1.523-1.74,2.284c4.078,0.259,8.093,0.195,12.169,0.06c1.508-0.05,2.241-1.833,1.215-2.933
				c-9.44-10.126-19.501-19.607-29.272-29.398c-0.632-0.633-1.639-0.591-2.278,0c-9.833,9.086-20.2,18.024-28.93,28.199
				C223.717,74.675,225.143,76.084,226.25,75.158L226.25,75.158z"/>
		</g>
		<g>
			<path style="fill:#404040;" d="M256.954,57.804c3.949,3.644,7.431,7.926,11.508,11.406c0.751,0.641,2.171-0.23,1.48-1.142
				c-3.299-4.36-8.056-7.79-12.444-10.968C257.084,56.799,256.583,57.462,256.954,57.804L256.954,57.804z"/>
		</g>
		<g>
			<path style="fill:#404040;" d="M271.293,69.868c-0.273,0.006-0.541,0.018-0.801,0.108c-1.154,0.398-1.156,1.95,0,2.349
				c0.26,0.09,0.528,0.102,0.801,0.108c0.671,0.014,1.313-0.6,1.282-1.282C272.545,70.468,272.012,69.853,271.293,69.868
				L271.293,69.868z"/>
		</g>
		<g>
			<path style="fill:#404040;" d="M240.174,81.725c-1.302,4.028-2.344,8.163-2.927,12.36c-0.154,1.107,1.544,1.582,1.694,0.467
				c0.569-4.229,1.242-8.398,2.21-12.557C241.299,81.358,240.375,81.104,240.174,81.725L240.174,81.725z"/>
		</g>
		<g>
			<path style="fill:#404040;" d="M238.063,98.687c1.105-0.506,0.184-2.225-0.87-1.608C236.199,97.66,237.026,99.161,238.063,98.687
				L238.063,98.687z"/>
		</g>
	</g>
	<g>
		<g>
			<path style="fill:#404040;" d="M124.182,414.923c4.357-5.237,9.946-9.22,16.648-10.805c8.524-2.016,17.992,1.652,16.158,11.924
				c-0.66,3.697-2.941,7.359-6.216,9.289c-4.641,2.735-10.816-0.009-7.101-5.629c3.903-5.904,14.613-6.988,20.889-5.947
				c8.168,1.355,16.219,8.099,10.511,16.836c-1.183,1.81-2.928,3.341-4.741,4.489c-0.655,0.419-1.333,0.794-2.036,1.124
				c-1.511,0.989-2.984,0.411-4.42-1.734c0.593-2.835,7.409-5.591,9.8-6.482c5.499-2.048,17.487-4.369,20.927,2.19
				c3.856,7.35-4.16,13.567-8.43,18.219c-1.588,1.729,0.557,4.983,2.651,3.436c6.678-4.936,13.487-13.294,10.366-22.147
				c-3.099-8.791-14.627-8.877-22.197-7.341c-6.283,1.275-19.992,6.509-18.103,15.108c2.17,9.879,15.263,1.277,18.69-2.983
				c5.562-6.916,4.457-16.587-3.055-21.477c-8.202-5.339-19.814-4.796-28.346-0.552c-5.849,2.909-11.861,11.773-4.692,16.939
				c7.12,5.13,16.155-3.155,18.542-9.549c3.322-8.9-1.007-18.511-10.754-19.969c-10.615-1.588-21.313,5.051-27.299,13.359
				C121.047,414.504,123.16,416.151,124.182,414.923L124.182,414.923z"/>
		</g>
		<g>
			<path style="fill:#404040;" d="M186.881,434.222c0.137,2.838-0.184,5.611-0.781,8.384c-0.524,2.436-1.525,4.755-1.646,7.253
				c-0.124,2.542,3.39,3.261,4.622,1.252c2.991-4.875,1.802-11.961,0.99-17.32C189.792,431.984,186.794,432.412,186.881,434.222
				L186.881,434.222z"/>
		</g>
		<g>
			<path style="fill:#404040;" d="M208.624,442.662c-7.993,1.191-15.361,2.822-23.011,5.537c-3.41,1.21-1.799,6.728,1.485,5.386
				c7.255-2.964,14.803-5.851,22.295-8.136C211.217,444.893,210.423,442.394,208.624,442.662L208.624,442.662z"/>
		</g>
		<g>
			<path style="fill:#404040;" d="M164.483,405.75c6.248,0.32,11.785,3.327,15.046,8.729c0.748,1.238,2.694,0.108,1.943-1.136
				c-3.582-5.932-10.009-9.547-16.989-8.765C163.746,404.661,163.714,405.711,164.483,405.75L164.483,405.75z"/>
		</g>
		<g>
			<path style="fill:#404040;" d="M182.679,415.849c-0.346,0.034-0.612,0.091-0.923,0.252c-0.866,0.446-0.866,1.848,0,2.294
				c0.311,0.16,0.577,0.218,0.923,0.252c0.753,0.074,1.398-0.696,1.398-1.398C184.078,416.548,183.435,415.775,182.679,415.849
				L182.679,415.849z"/>
		</g>
	</g>
	<g>
		<g>
			<path style="fill:#404040;" d="M345.801,445.161c-1.44-7.603-1.028-15.662,1.078-23.114c0.951-3.365,2.173-7.087,4.524-9.768
				c3.901-4.449,9.458-3.64,12.051,1.756c6.443,13.405-8.228,29.181-14.393,39.953c-1.575,2.751,2.374,6.097,4.54,3.503
				c6.648-7.962,13.105-18.742,15.927-28.79c2.274-8.098,1.333-19.331-6.902-23.868c-7.909-4.358-15.655,2.389-18.62,9.412
				c-4.296,10.179-4.355,21.327-2.01,31.965C342.546,448.705,346.269,447.633,345.801,445.161L345.801,445.161z"/>
		</g>
		<g>
			<path style="fill:#404040;" d="M349.619,435.354c-0.886,6.974-2.268,14.717-1.738,21.736c0.24,3.177,4.755,3.205,4.961,0
				c0.455-7.081-0.646-14.624-0.957-21.736C351.819,433.859,349.798,433.941,349.619,435.354L349.619,435.354z"/>
		</g>
		<g>
			<path style="fill:#404040;" d="M377.398,442.233c-10.055,2.616-19.96,6.929-28.648,12.66c-3.007,1.983-0.035,6.887,2.8,4.79
				c8.317-6.154,16.907-11.176,26.482-15.152C379.405,443.961,378.93,441.835,377.398,442.233L377.398,442.233z"/>
		</g>
		<g>
			<path style="fill:#404040;" d="M362.583,401.457c8.227,3.366,11.817,14.958,9.425,22.836c-0.443,1.46,1.806,2.064,2.275,0.627
				c2.898-8.878-1.466-22.075-11.463-24.322C362.247,400.47,362.063,401.245,362.583,401.457L362.583,401.457z"/>
		</g>
		<g>
			<path style="fill:#404040;" d="M373.519,427.656c-0.047-0.037-0.094-0.074-0.141-0.112c-0.645-0.51-1.525-0.629-2.154,0
				c-0.638,0.638-0.512,1.507,0,2.154c0.037,0.047,0.074,0.094,0.112,0.141c0.518,0.655,1.643,0.541,2.184,0
				C374.056,429.303,374.177,428.176,373.519,427.656L373.519,427.656z"/>
		</g>
	</g>
	<g>
		<g>
			<path style="fill:#404040;" d="M361.935,43.492c-8.01,5.984-15.35,13.084-22.556,19.996c-0.942,0.904-0.284,2.903,1.142,2.757
				c3.63-0.373,7.238-0.545,10.887-0.514c-0.484-0.635-0.968-1.271-1.452-1.906c-1.426,6.004-0.55,12.579-0.401,18.685
				c0.178,7.262,0.409,14.523,0.663,21.783c0.018,0.52,0.365,1.055,0.897,1.178c3.887,0.9,7.976,0.836,11.9,0.189
				c1.36-0.224,0.972-2.294-0.315-2.33c-3.733-0.103-7.531-0.304-11.26-0.259c0.407,0.407,0.815,0.815,1.222,1.222
				c-0.043-6.723-0.097-13.447-0.21-20.169c-0.105-6.283-1.103-13.35,0.408-19.498c0.238-0.967-0.457-1.879-1.452-1.906
				c-3.645-0.098-7.253-0.002-10.887,0.295c0.381,0.919,0.761,1.838,1.142,2.757c7.377-6.571,14.975-13.256,21.496-20.694
				C363.862,44.275,362.91,42.764,361.935,43.492L361.935,43.492z"/>
		</g>
		<g>
			<path style="fill:#404040;" d="M362.242,45.078c6.52,7.438,14.119,14.123,21.496,20.694c0.381-0.919,0.761-1.838,1.142-2.757
				c-3.634-0.297-7.242-0.393-10.887-0.295c-0.995,0.027-1.69,0.939-1.452,1.906c1.511,6.15,0.513,13.219,0.408,19.498
				c-0.113,6.723-0.167,13.446-0.21,20.169c0.407-0.407,0.815-0.815,1.222-1.222c-3.729-0.045-7.527,0.156-11.26,0.259
				c-1.274,0.035-1.688,2.103-0.315,2.33c3.925,0.647,8.013,0.711,11.9-0.189c0.534-0.124,0.879-0.656,0.897-1.178
				c0.254-7.26,0.485-14.521,0.663-21.783c0.15-6.12,1.028-12.672-0.401-18.685c-0.484,0.635-0.968,1.271-1.452,1.906
				c3.649-0.031,7.257,0.141,10.887,0.514c1.423,0.146,2.09-1.847,1.142-2.757c-7.206-6.912-14.547-14.013-22.556-19.996
				C362.5,42.771,361.531,44.267,362.242,45.078L362.242,45.078z"/>
		</g>
		<g>
			<path style="fill:#404040;" d="M369.619,72.11c-0.539,6.701-1.58,13.548-1.376,20.276c0.038,1.247,1.735,1.172,1.885,0
				c0.854-6.667,0.491-13.565,0.607-20.276C370.748,71.384,369.676,71.403,369.619,72.11L369.619,72.11z"/>
		</g>
		<g>
			<path style="fill:#404040;" d="M371.085,96.664c0.005-0.377-0.143-0.684-0.299-1.019c-0.246-0.527-1.005-0.661-1.474-0.386
				c-0.513,0.3-0.669,0.963-0.386,1.474c0.18,0.325,0.364,0.564,0.674,0.784C370.232,97.966,371.076,97.358,371.085,96.664
				L371.085,96.664z"/>
		</g>
		<g>
			<path style="fill:#404040;" d="M353.021,59.348c1.062-1.009,2.184-1.935,3.219-2.974c0.915-0.919,2.15-1.912,2.69-3.096
				c0.311-0.682-0.342-1.482-1.07-1.07c-1.133,0.641-2.017,1.944-2.85,2.936c-0.95,1.132-1.78,2.341-2.697,3.497
				C351.923,59.133,352.543,59.803,353.021,59.348L353.021,59.348z"/>
		</g>
		<g>
			<path style="fill:#404040;" d="M361.245,51.227c1.378,0,1.38-2.141,0-2.141C359.867,49.086,359.865,51.227,361.245,51.227
				L361.245,51.227z"/>
		</g>
	</g>
	<g>
		<g>
			<path style="fill:#404040;" d="M123.744,105.105c2.642-16.651,11.445-32.144,26.678-40.195
				c7.553-3.992,15.838-5.045,24.177-6.226c2.071-0.293,5.866,0.042,7.219-1.745c0.789-1.043,0.598-3.046,0.695-4.242
				c0.205-2.532,0.312-5.07,0.438-7.607c-0.946,0.256-1.892,0.512-2.838,0.769c6.772,9.222,14.613,18.162,23.782,25.07
				c0-1.005,0-2.01,0-3.015c-5.128,2.244-8.358,7.062-12.02,11.09c-4.465,4.911-9.04,9.808-13.669,14.554
				c0.778,0.453,1.556,0.906,2.334,1.359c1.051-3.996,1.609-7.959,1.587-12.092c-0.006-1.181-1.046-1.744-2.092-1.594
				c-13.47,1.937-30.913,7.142-31.749,23.524c0.562-0.562,1.124-1.125,1.687-1.687c-9.086-0.401-18.182-0.544-27.224,0.62
				c-2.116,0.272-2.274,3.484,0,3.43c9.075-0.216,18.142-0.793,27.224-0.677c0.963,0.012,1.617-0.786,1.687-1.687
				c1.129-14.613,17.388-18.504,29.255-20.337c-0.697-0.531-1.395-1.063-2.092-1.594c-0.043,3.821-0.318,7.579-0.975,11.349
				c-0.236,1.356,1.251,2.343,2.335,1.359c4.389-3.987,8.577-7.992,12.593-12.376c3.589-3.917,7.346-10.106,12.465-12.053
				c1.12-0.426,1.857-1.982,0.77-2.918c-8.556-7.366-16.489-14.773-23.268-23.865c-0.88-1.181-2.77-0.836-2.837,0.769
				c-0.097,2.282-0.192,4.562-0.243,6.846c-0.076,3.404-0.935,3.645-3.994,3.78c-4.062,0.179-8.091,0.448-12.109,1.099
				c-7.751,1.256-15.074,4.392-21.356,9.104c-12.391,9.293-19.697,23.508-20.915,38.854
				C121.178,106.16,123.522,106.502,123.744,105.105L123.744,105.105z"/>
		</g>
		<g>
			<path style="fill:#404040;" d="M135.039,84.382c6.711-6.892,12.4-13.611,21.321-17.684c1.051-0.48,0.305-2.177-0.781-1.851
				c-9.306,2.791-16.198,11.152-21.215,19.015C134.101,84.274,134.7,84.73,135.039,84.382L135.039,84.382z"/>
		</g>
		<g>
			<path style="fill:#404040;" d="M160.505,65.978c0.664,0,1.3-0.584,1.269-1.269c-0.031-0.688-0.558-1.269-1.269-1.269
				c-0.664,0-1.3,0.584-1.269,1.269C159.267,65.397,159.794,65.978,160.505,65.978L160.505,65.978z"/>
		</g>
		<g>
			<path style="fill:#404040;" d="M186.353,60.58c1.213,1.377,2.478,2.726,3.73,4.069c1.124,1.205,2.248,2.79,3.719,3.569
				c0.737,0.391,1.656-0.417,1.184-1.184c-0.88-1.43-2.509-2.44-3.795-3.493c-1.428-1.17-2.861-2.349-4.321-3.478
				C186.505,59.781,186.034,60.218,186.353,60.58L186.353,60.58z"/>
		</g>
		<g>
			<path style="fill:#404040;" d="M196.768,70.759c1.031,0,1.033-1.603,0-1.603C195.736,69.156,195.735,70.759,196.768,70.759
				L196.768,70.759z"/>
		</g>
	</g>
</g>
</svg>
