<svg width="63" height="72" viewBox="0 0 63 72" fill="none" xmlns="http://www.w3.org/2000/svg">
<path d="M38.3591 66.0052C42.7614 44.4118 39.0224 22.3731 27.8008 3.4054C25.533 -0.428434 19.9954 3.72225 22.2406 7.51708C32.4925 24.8461 36.6548 45.4407 33.8688 65.3911C33.462 68.2991 37.7798 68.8436 38.3591 66.0052Z" fill="#E01A4F"/>
<path d="M47.2297 41.8873C44.5533 45.427 43.2686 49.8725 41.4351 53.8825C39.3423 58.4591 36.9285 62.8861 34.5887 67.3383C35.9157 67.3546 37.2427 67.3708 38.5696 67.387C35.2234 60.9147 31.8671 52.3871 26.4642 47.3973C24.9476 45.9963 22.4038 47.9478 23.2498 49.7837C24.6463 52.8175 26.9501 55.2959 28.7353 58.1209C30.9343 61.6 32.9226 65.215 34.5681 68.9877C35.2012 70.4396 37.2361 70.8551 38.2525 69.5327C43.6511 62.5163 49.7804 51.337 48.1641 42.1519C48.0901 41.723 47.5158 41.5094 47.2297 41.8873Z" fill="#E01A4F"/>
<path d="M30.7856 42.6729C30.608 34.6138 28.4381 26.7756 24.8682 19.5687C24.0759 17.9679 21.487 18.9764 22.2708 20.6072C25.697 27.7307 28.1154 35.1032 29.9945 42.7722C30.1168 43.2686 30.7968 43.1924 30.7856 42.6729Z" fill="#E01A4F"/>
<path d="M20.2918 14.5393C20.2705 14.5585 20.2488 14.5785 20.2285 14.5981C19.6593 15.1211 19.3937 15.9691 19.9225 16.6441C20.1835 16.9769 20.5519 17.2621 20.9929 17.2815C21.6186 17.3093 22.0887 17.0528 22.3795 16.4963C22.5321 16.2038 22.6045 15.8192 22.527 15.4977C22.4064 14.9999 22.1813 14.5911 21.685 14.3783C21.2659 14.1986 20.6454 14.2144 20.2918 14.5393Z" fill="#E01A4F"/>
</svg>
